<svg id="flag-es-es" xmlns="http://www.w3.org/2000/svg" viewBox="0 0 512 512">
<path fill="#AA151B" d="M0,0h512v512H0V0z"/>
<path fill="#F1BF00" d="M0,128h512v256H0V128z"/>
<path fill="#AD1519" d="M172,228l-1-1c-0.4-0.3-0.7-0.6-1-1h-1l-1-1v-2l2-2h1l1-1h3l1-1h7c1.3,0.7,2.6,1.4,4,2h2l1,1l1,1v1l-1,1v1
	l-1,1l-1,1l-9-1L172,228"/>
<path fill="none" stroke="#000000" stroke-width="0.3" stroke-linejoin="round" d="M172,228l-1-1c-0.4-0.3-0.7-0.6-1-1h-1l-1-1v-2
	l2-2h1l1-1h3l1-1h7c1.3,0.7,2.6,1.4,4,2h2l1,1l1,1v1l-1,1v1l-1,1l-1,1l-9-1L172,228z"/>
<path fill="#C8B100" d="M178,221c0-2,1-3,2-3l1,3l-1,2L178,221"/>
<path fill="none" stroke="#000000" stroke-width="0.3" d="M178,221c0-2,1-3,2-3l1,3l-1,2L178,221z"/>
<path fill="#C8B100" d="M179,221l1-2v4L179,221"/>
<path fill="none" stroke="#000000" stroke-width="0.3" d="M179,221l1-2v4L179,221z"/>
<path fill="#C8B100" d="M179,218l1-1l1,1l-1,1C179.4,219,179,218.6,179,218"/>
<path fill="#C8B100" d="M180,218h-1v-3h1v1h1v1h-1V218"/>
<path fill="none" stroke="#000000" stroke-width="0.3" d="M180,218h-1v-3h1v1h1v1h-1V218"/>
<path fill="#C8B100" d="M181,218h-3h1v-3h1v1h1v1h-1v1H181"/>
<path fill="none" stroke="#000000" stroke-width="0.3" d="M181,218h-3h1v-3h1v1h1v1h-1v1H181"/>
<path fill="none" stroke="#000000" stroke-width="0.3" d="M180,217c0.6,0,1,0.4,1,1l-1,1l-1-1v-1"/>
<path fill="#C8B100" d="M180,227h-5v-1l-1-1v-2l-3-2v-1c2-1,4,1,6,4l1,1h4v-1c2-3,4-5,6-4v1l-3,2v4H180"/>
<path fill="none" stroke="#000000" stroke-width="0.3" d="M180,227h-5v-1l-1-1v-2l-3-2v-1c2-1,4,1,6,4l1,1h4v-1c2-3,4-5,6-4v1l-3,2
	v4H180z"/>
<path fill="none" stroke="#000000" stroke-width="0.3" d="M171,221c1-1,3,1,5,3 M188,221c-1-1-3,1-5,3"/>
<path fill="#C8B100" d="M172,230c0-0.3,0-0.7,0-1l8-1l8,1h-1v1H172"/>
<path fill="none" stroke="#000000" stroke-width="0.3" d="M172,230c0-0.3,0-0.7,0-1l8-1l8,1h-1v1H172"/>
<path fill="#C8B100" d="M180,232c2-0.1,4-0.4,6-1h1l-1-1c-2.3-0.7-4.6-1-7-1l-6,1l-1,1h1L180,232"/>
<path fill="none" stroke="#000000" stroke-width="0.3" d="M180,232c2-0.1,4-0.4,6-1h1l-1-1c-2.3-0.7-4.6-1-7-1l-6,1l-1,1h1L180,232z
	"/>
<path fill="#C8B100" d="M188,227h-2l-1-1l-2,1l-1-1l-1,1l-2-1l-1,1l-1-1l-1,1l-2-1v1h-2v1c4.9-1.2,10.1-1.2,15,0L188,227"/>
<path fill="none" stroke="#000000" stroke-width="0.3" d="M188,227h-2l-1-1l-2,1l-1-1l-1,1l-2-1l-1,1l-1-1l-1,1l-2-1v1h-2v1
	c4.9-1.2,10.1-1.2,15,0L188,227z"/>
<path fill="#C8B100" d="M180,225c0,0.6,0.4,1,1,1h1v-1v1h1c0.6,0,1-0.4,1-1h1c-0.2,0.3-0.2,0.7,0,1l1,1l1-1l1,1h1v-1l-1,2h-1v-1
	c-0.3,0.1-0.7,0.1-1,0h-1c-0.6,0.4-1.4,0.4-2,0c-0.4-0.2-0.8-0.6-1-1c-0.2,0.4-0.6,0.8-1,1l-1-1l-2,1c-0.3,0.1-0.7,0.1-1,0h-1
	c-0.3,0.1-0.7,0.1-1,0h-3v1c-0.3,0.1-0.7,0.1-1,0c-0.5-0.6-0.9-1.3-1-2l1,1h1v-1l1,1l1-1c0.2-0.3,0.2-0.7,0-1h1l1,2l1-1v-1v1h1l1-1
	H180"/>
<path fill="none" stroke="#000000" stroke-width="0.3" d="M180,225c0,0.6,0.4,1,1,1h1v-1v1h1c0.6,0,1-0.4,1-1h1
	c-0.2,0.3-0.2,0.7,0,1l1,1l1-1l1,1h1v-1l-1,2h-1v-1c-0.3,0.1-0.7,0.1-1,0h-1c-0.6,0.4-1.4,0.4-2,0c-0.4-0.2-0.8-0.6-1-1
	c-0.2,0.4-0.6,0.8-1,1l-1-1l-2,1c-0.3,0.1-0.7,0.1-1,0h-1c-0.3,0.1-0.7,0.1-1,0h-3v1c-0.3,0.1-0.7,0.1-1,0c-0.5-0.6-0.9-1.3-1-2l1,1
	h1v-1l1,1l1-1c0.2-0.3,0.2-0.7,0-1h1l1,2l1-1v-1v1h1l1-1H180z"/>
<path fill="#C8B100" d="M180,228l-8,1l-1-1h1l8-1l8,1l-1,1l-8-1"/>
<path fill="none" stroke="#000000" stroke-width="0.3" stroke-linejoin="round" d="M180,228l-8,1l-1-1h1l8-1l8,1l-1,1l-8-1H180z"/>
<path fill="#FFFFFF" d="M177,229v-1V229C178,229,177,229,177,229"/>
<path fill="none" stroke="#000000" stroke-width="0.3" d="M177,229v-1V229C178,229,177,229,177,229z"/>
<path fill="#AD1519" d="M180,229h-2l1-1h2v1H180"/>
<path fill="none" stroke="#000000" stroke-width="0.3" d="M180,229h-2l1-1h2v1H180"/>
<path fill="#058E6E" d="M175,229h-1l1-1l1,1H175"/>
<path fill="none" stroke="#000000" stroke-width="0.3" d="M175,229h-1l1-1l1,1H175"/>
<path fill="#AD1519" d="M172,230v-1h1L172,230"/>
<path fill="none" stroke="#000000" stroke-width="0.3" d="M172,230v-1h1L172,230"/>
<path fill="#FFFFFF" d="M182,229v-1l1,1H182"/>
<path fill="none" stroke="#000000" stroke-width="0.3" d="M182,229v-1l1,1H182z"/>
<path fill="#058E6E" d="M185,229h1H185l-1-1v1H185"/>
<path fill="none" stroke="#000000" stroke-width="0.3" d="M185,229h1H185l-1-1v1H185"/>
<path fill="#AD1519" d="M187,230v-1h-1L187,230"/>
<path fill="none" stroke="#000000" stroke-width="0.3" d="M187,230v-1h-1L187,230"/>
<path fill="#AD1519" d="M180,232l-7-1c2.3-0.6,4.6-1,7-1l6,1L180,232"/>
<path fill="none" stroke="#000000" stroke-width="0.3" stroke-linejoin="round" d="M180,232l-7-1c2.3-0.6,4.6-1,7-1l6,1L180,232z"/>
<path fill="#C8B100" d="M187,226C188,226,187,226,187,226"/>
<path fill="none" stroke="#000000" stroke-width="0.3" d="M187,226C188,226,187,226,187,226z"/>
<path fill="#C8B100" d="M183,225h-1v1v-1"/>
<path fill="none" stroke="#000000" stroke-width="0.3" d="M183,225h-1v1v-1H183z"/>
<path fill="#C8B100" d="M177,225v1V225"/>
<path fill="none" stroke="#000000" stroke-width="0.3" d="M177,225v1V225z"/>
<path fill="#C8B100" d="M180,222l-1,1v1l1,1v-2l-1-1"/>
<path fill="none" stroke="#000000" stroke-width="0.3" d="M180,222l-1,1v1l1,1v-2l-1-1"/>
<path fill="#C8B100" d="M178,225h1l1-1h-2V225"/>
<path fill="none" stroke="#000000" stroke-width="0.3" d="M178,225h1l1-1h-2V225"/>
<path fill="#C8B100" d="M182,225h-2v-1h1v1"/>
<path fill="none" stroke="#000000" stroke-width="0.3" d="M182,225h-2v-1h1v1"/>
<path fill="#C8B100" d="M174,223l-1,1l1,1h1v-2H174"/>
<path fill="none" stroke="#000000" stroke-width="0.3" d="M174,223l-1,1l1,1h1v-2H174"/>
<path fill="#C8B100" d="M172,225l1,1l1-1H172"/>
<path fill="none" stroke="#000000" stroke-width="0.3" d="M172,225l1,1l1-1H172"/>
<path fill="#C8B100" d="M176,225h-2l2-1V225"/>
<path fill="none" stroke="#000000" stroke-width="0.3" d="M176,225h-2l2-1V225"/>
<path fill="#C8B100" d="M171,226h-2l1-1h1"/>
<path fill="none" stroke="#000000" stroke-width="0.3" d="M171,226h-2l1-1h1"/>
<path fill="#C8B100" d="M174,225v-1l1,1C174.7,225.2,174.3,225.2,174,225"/>
<path fill="none" stroke="#000000" stroke-width="0.3" d="M174,225v-1l1,1C174.7,225.2,174.3,225.2,174,225z"/>
<path fill="#C8B100" d="M185,223l1,1l-1,1l-1-2H185"/>
<path fill="none" stroke="#000000" stroke-width="0.3" d="M185,223l1,1l-1,1l-1-2H185"/>
<path fill="#C8B100" d="M187,225l-1,1l-1-1H187"/>
<path fill="none" stroke="#000000" stroke-width="0.3" d="M187,225l-1,1l-1-1H187"/>
<path fill="#C8B100" d="M183,225h2l-1-1L183,225"/>
<path fill="none" stroke="#000000" stroke-width="0.3" d="M183,225h2l-1-1L183,225"/>
<path fill="#C8B100" d="M188,226h2l-1-1h-1"/>
<path fill="none" stroke="#000000" stroke-width="0.3" d="M188,226h2l-1-1h-1"/>
<path fill="#C8B100" d="M179,225c0-0.6,0.4-1,1-1v1C179.7,225.2,179.3,225.2,179,225"/>
<path fill="none" stroke="#000000" stroke-width="0.3" d="M179,225c0-0.6,0.4-1,1-1v1C179.7,225.2,179.3,225.2,179,225z"/>
<path fill="#C8B100" d="M184,225c0-0.6,0.4-1,1-1c0.2,0.3,0.2,0.7,0,1C184.7,225.2,184.3,225.2,184,225"/>
<path fill="none" stroke="#000000" stroke-width="0.3" d="M184,225c0-0.6,0.4-1,1-1c0.2,0.3,0.2,0.7,0,1
	C184.7,225.2,184.3,225.2,184,225z"/>
<path fill="#C8B100" d="M169,226h-1v-1h1V226"/>
<path fill="none" stroke="#000000" stroke-width="0.3" d="M169,226h-1v-1h1V226z"/>
<path fill="#C8B100" d="M169,226h1v1h-1V226"/>
<path fill="none" stroke="#000000" stroke-width="0.3" d="M169,226h1v1h-1V226z"/>
<path fill="#C8B100" d="M190,226h1v-1c-0.3-0.2-0.7-0.2-1,0V226"/>
<path fill="none" stroke="#000000" stroke-width="0.3" d="M190,226h1v-1c-0.3-0.2-0.7-0.2-1,0V226z"/>
<path fill="#C8B100" d="M190,226h-1v1h1V226"/>
<path fill="none" stroke="#000000" stroke-width="0.3" d="M190,226h-1v1h1V226z"/>
<path fill="#C8B100" d="M168,238h23v-6h-23V238z"/>
<path fill="none" stroke="#000000" stroke-width="0.4" d="M168,238h23v-6h-23V238z"/>
<path fill="#C8B100" d="M171,242h18l-1-1l1-2c-0.3,0.1-0.7,0.1-1,0h-17l1,2L171,242"/>
<path fill="none" stroke="#000000" stroke-width="0.4" stroke-linejoin="round" d="M171,242h18l-1-1l1-2c-0.3,0.1-0.7,0.1-1,0h-17
	l1,2L171,242z"/>
<path fill="#C8B100" d="M171,242h17l1,1l-1,1h-17l-1-1L171,242"/>
<path fill="none" stroke="#000000" stroke-width="0.4" d="M171,242h17l1,1l-1,1h-17l-1-1L171,242z"/>
<path fill="#C8B100" d="M171,238h17l1,1h-19L171,238"/>
<path fill="none" stroke="#000000" stroke-width="0.4" d="M171,238h17l1,1h-19L171,238z"/>
<path fill="#005BBF" d="M196,339c-1.4,0-2.8-0.4-4-1s-2.6-1-4-1l-4,1c-1.2,0.6-2.6,1-4,1c-1.4,0-2.8-0.4-4-1s-2.6-1-4-1
	c-1.4,0-2.8,0.4-4,1l-4,1v2c1.4,0,2.8-0.4,4-1s2.6-1,4-1c1.4,0,2.8,0.4,4,1s2.6,1,4,1c1.4,0,2.8-0.4,4-1s2.6-1,4-1l4,1
	c1.2,0.6,2.6,1,4,1V339"/>
<path fill="none" stroke="#000000" stroke-width="0.4" d="M196,339c-1.4,0-2.8-0.4-4-1s-2.6-1-4-1l-4,1c-1.2,0.6-2.6,1-4,1
	c-1.4,0-2.8-0.4-4-1s-2.6-1-4-1c-1.4,0-2.8,0.4-4,1l-4,1v2c1.4,0,2.8-0.4,4-1s2.6-1,4-1c1.4,0,2.8,0.4,4,1s2.6,1,4,1
	c1.4,0,2.8-0.4,4-1s2.6-1,4-1l4,1c1.2,0.6,2.6,1,4,1V339z"/>
<path fill="#CCCCCC" d="M196,341c-1.4,0-2.8-0.4-4-1s-2.6-1-4-1l-4,1c-1.2,0.6-2.6,1-4,1c-1.4,0-2.8-0.4-4-1s-2.6-1-4-1l-4,1
	c-1.2,0.6-2.6,1-4,1v2c1.3,0.3,2.7,0.3,4,0c1.2-0.6,2.6-1,4-1c1.4,0,2.8,0.4,4,1s2.6,1,4,1c1.4,0,2.8-0.4,4-1s2.6-1,4-1
	c1.4,0,2.8,0.4,4,1s2.6,1,4,1V341"/>
<path fill="none" stroke="#000000" stroke-width="0.4" d="M196,341c-1.4,0-2.8-0.4-4-1s-2.6-1-4-1l-4,1c-1.2,0.6-2.6,1-4,1
	c-1.4,0-2.8-0.4-4-1s-2.6-1-4-1l-4,1c-1.2,0.6-2.6,1-4,1v2c1.3,0.3,2.7,0.3,4,0c1.2-0.6,2.6-1,4-1c1.4,0,2.8,0.4,4,1s2.6,1,4,1
	c1.4,0,2.8-0.4,4-1s2.6-1,4-1c1.4,0,2.8,0.4,4,1s2.6,1,4,1V341"/>
<path fill="#005BBF" d="M196,344c-1.4,0-2.8-0.4-4-1s-2.6-1-4-1c-1.4,0-2.8,0.4-4,1s-2.6,1-4,1c-1.4,0-2.8-0.4-4-1s-2.6-1-4-1
	c-1.4,0-2.8,0.4-4,1s-2.6,1-4,1v2l4-1c1.2-0.6,2.6-1,4-1c1.4,0,2.8,0.4,4,1c2.5,1.3,5.5,1.3,8,0c1.2-0.6,2.6-1,4-1l4,1l4,1v-3"/>
<path fill="none" stroke="#000000" stroke-width="0.4" d="M196,344c-1.4,0-2.8-0.4-4-1s-2.6-1-4-1c-1.4,0-2.8,0.4-4,1s-2.6,1-4,1
	c-1.4,0-2.8-0.4-4-1s-2.6-1-4-1c-1.4,0-2.8,0.4-4,1s-2.6,1-4,1v2l4-1c1.2-0.6,2.6-1,4-1c1.4,0,2.8,0.4,4,1c2.5,1.3,5.5,1.3,8,0
	c1.2-0.6,2.6-1,4-1l4,1l4,1v-3"/>
<path fill="#CCCCCC" d="M196,349c-1.4,0-2.8-0.4-4-1s-2.6-1-4-1c-1.4,0-2.8,0.4-4,1s-2.6,1-4,1c-1.4,0-2.8-0.4-4-1s-2.6-1-4-1
	c-1.4,0-2.8,0.4-4,1s-2.6,1-4,1v-3c1.4,0,2.8-0.4,4-1s2.6-1,4-1c1.4,0,2.8,0.4,4,1l4,1c1.4,0,2.8-0.4,4-1s2.6-1,4-1
	c1.4,0,2.8,0.4,4,1l4,1V349"/>
<path fill="none" stroke="#000000" stroke-width="0.4" d="M196,349c-1.4,0-2.8-0.4-4-1s-2.6-1-4-1c-1.4,0-2.8,0.4-4,1s-2.6,1-4,1
	c-1.4,0-2.8-0.4-4-1s-2.6-1-4-1c-1.4,0-2.8,0.4-4,1s-2.6,1-4,1v-3c1.4,0,2.8-0.4,4-1s2.6-1,4-1c1.4,0,2.8,0.4,4,1l4,1
	c1.4,0,2.8-0.4,4-1s2.6-1,4-1c1.4,0,2.8,0.4,4,1l4,1V349"/>
<path fill="#005BBF" d="M196,351c-1.4,0-2.8-0.4-4-1s-2.6-1-4-1c-1.4,0-2.8,0.4-4,1s-2.6,1-4,1c-1.4,0-2.8-0.4-4-1s-2.6-1-4-1
	c-1.4,0-2.8,0.4-4,1l-4,1v-2l4-1c1.2-0.6,2.6-1,4-1c1.4,0,2.8,0.4,4,1s2.6,1,4,1c1.4,0,2.8-0.4,4-1s2.6-1,4-1c1.4,0,2.8,0.4,4,1
	s2.6,1,4,1V351"/>
<path fill="none" stroke="#000000" stroke-width="0.4" d="M196,351c-1.4,0-2.8-0.4-4-1s-2.6-1-4-1c-1.4,0-2.8,0.4-4,1s-2.6,1-4,1
	c-1.4,0-2.8-0.4-4-1s-2.6-1-4-1c-1.4,0-2.8,0.4-4,1l-4,1v-2l4-1c1.2-0.6,2.6-1,4-1c1.4,0,2.8,0.4,4,1s2.6,1,4,1c1.4,0,2.8-0.4,4-1
	s2.6-1,4-1c1.4,0,2.8,0.4,4,1s2.6,1,4,1V351z"/>
<path fill="#C8B100" d="M171,329c0,2-2,3-3,3h23c-1,0-3-1-3-3h1c-0.3,0.2-0.7,0.2-1,0H171"/>
<path fill="none" stroke="#000000" stroke-width="0.4" stroke-linejoin="round" d="M171,329c0,2-2,3-3,3h23c-1,0-3-1-3-3h1
	c-0.3,0.2-0.7,0.2-1,0H171z"/>
<path fill="#C8B100" d="M171,327h17l1,1h-19L171,327"/>
<path fill="none" stroke="#000000" stroke-width="0.4" d="M171,327h17l1,1h-19L171,327z"/>
<path fill="#C8B100" d="M168,338h23v-6h-23V338z"/>
<path fill="none" stroke="#000000" stroke-width="0.4" d="M168,338h23v-6h-23V338z"/>
<path fill="#AD1519" d="M166,306l-3,3l1,2c2,1,3,3,2,4c2.5-2.2,2.7-6,0.5-8.5C166.4,306.3,166.2,306.2,166,306"/>
<path fill="none" stroke="#000000" stroke-width="0.4" d="M166,306l-3,3l1,2c2,1,3,3,2,4c2.5-2.2,2.7-6,0.5-8.5
	C166.4,306.3,166.2,306.2,166,306z"/>
<path fill="#CCCCCC" d="M171,326h17v-82h-17V326z"/>
<path fill="none" stroke="#000000" stroke-width="0.4" d="M183,245v81 M185,245v81 M171,326h17v-81h-17V326z"/>
<path fill="#AD1519" d="M205,275c-5.5-1.9-11.2-2.9-17-3c-2.7,0.1-5.4,0.5-8,1c-10,2-17,5-17,9l-4-9c0-3,8-8,19-10
	c3.3-0.3,6.7-0.3,10,0c7,0,13,0,17,2V275"/>
<path fill="none" stroke="#000000" stroke-width="0.4" stroke-linejoin="round" d="M205,275c-5.5-1.9-11.2-2.9-17-3
	c-2.7,0.1-5.4,0.5-8,1c-10,2-17,5-17,9l-4-9c0-3,8-8,19-10c3.3-0.3,6.7-0.3,10,0c7,0,13,0,17,2V275"/>
<path fill="#AD1519" d="M171,285c-4,0-7-1-8-3c0-2,1-4,4-5h4V285"/>
<path fill="none" stroke="#000000" stroke-width="0.4" d="M171,285c-4,0-7-1-8-3c0-2,1-4,4-5h4V285"/>
<path fill="#AD1519" d="M188,279l6,2c1,1-2,3-6,6V279"/>
<path fill="none" stroke="#000000" stroke-width="0.4" d="M188,279l6,2c1,1-2,3-6,6V279"/>
<path fill="#AD1519" d="M161,301c0-1,4-4,10-6l9-4c9-4,15-8,14-10l1,8c1,2-5,6-13,10l-11,4l-9,6L161,301"/>
<path fill="none" stroke="#000000" stroke-width="0.4" stroke-linejoin="round" d="M161,301c0-1,4-4,10-6l9-4c9-4,15-8,14-10l1,8
	c1,2-5,6-13,10l-11,4l-9,6L161,301z"/>
<path fill="#C8B100" d="M170,271l3-3l-3-1l-3,1l2,6h2L170,271z M169,268h1l1,1v1c-0.3,0.4-0.6,0.7-1,1L169,268 M177,265l-1,1h-1l1,6
	l5-1h-3L177,265 M186,271l2-7c-0.3,0-0.7,0-1,0c-0.6,1.7-1.3,3.4-2,5l-2-4h-2l4,6H186 M195,266l1-1c-0.7-0.2-1.3-0.2-2,0
	c-2-1-3,0-3,1c-1,3,3,2,3,4l-2,1l-1-1c-0.3,0.4-0.6,0.7-1,1h2c2,1,3,0,3-1c1-3-3-3-3-4l2-1L195,266"/>
<path fill="#AD1519" d="M332,226l-1,1l-1-1l-1,1l-2-1l-1,1h-1l-1,1l-1-1l-1-1v-1l-1-1l3-1h2c0.9-0.6,1.9-0.9,3-1
	c1.1,0.1,2.1,0.4,3,1c0.9-0.6,1.9-0.9,3-1l4,1c0.7-0.2,1.3-0.2,2,0l2,1v2h-1l-1,1l-1,1v-1h-2l-1-1l-1,1l-1-1l-1,1L332,226"/>
<path fill="none" stroke="#000000" stroke-width="0.3" d="M332,226l-1,1l-1-1l-1,1l-2-1l-1,1h-1l-1,1l-1-1l-1-1v-1l-1-1l3-1h2
	c0.9-0.6,1.9-0.9,3-1c1.1,0.1,2.1,0.4,3,1c0.9-0.6,1.9-0.9,3-1l4,1c0.7-0.2,1.3-0.2,2,0l2,1v2h-1l-1,1l-1,1v-1h-2l-1-1l-1,1l-1-1
	l-1,1L332,226z"/>
<path fill="#C8B100" d="M331,221l1-2l2,2l-2,2L331,221"/>
<path fill="none" stroke="#000000" stroke-width="0.3" d="M331,221l1-2l2,2l-2,2L331,221z"/>
<path fill="#C8B100" d="M332,221v-1l1,1l-1,2V221"/>
<path fill="none" stroke="#000000" stroke-width="0.3" d="M332,221v-1l1,1l-1,2V221z"/>
<path fill="#C8B100" d="M325,230c0-0.3,0-0.7,0-1l7-1l8,1l-1,1H325"/>
<path fill="none" stroke="#000000" stroke-width="0.3" d="M325,230c0-0.3,0-0.7,0-1l7-1l8,1l-1,1H325"/>
<path fill="#C8B100" d="M332,232l7-1h1l-1-1c-2.3-0.7-4.6-1-7-1c-2,0.1-4,0.4-6,1l-1,1h1L332,232"/>
<path fill="none" stroke="#000000" stroke-width="0.3" d="M332,232l7-1h1l-1-1c-2.3-0.7-4.6-1-7-1c-2,0.1-4,0.4-6,1l-1,1h1L332,232z
	"/>
<path fill="#FFFFFF" d="M338,222c0.3-0.2,0.7-0.2,1,0v1C338.4,223,338,222.6,338,222"/>
<path fill="none" stroke="#000000" stroke-width="0.2" d="M338,222c0.3-0.2,0.7-0.2,1,0v1C338.4,223,338,222.6,338,222z M338,221
	c0-0.6,0.4-1,1-1v1C338.7,221.2,338.3,221.2,338,221z M337,220c-0.2-0.3-0.2-0.7,0-1l1,1H337z M335,219h1c0.2,0.3,0.2,0.7,0,1
	L335,219z M334,219h1l-1,1C333.8,219.7,333.8,219.3,334,219z"/>
<path fill="none" stroke="#000000" stroke-width="0.3" stroke-linecap="round" d="M343,225c0.1-0.3,0.1-0.7,0-1c0-1.7-1.3-3-3-3
	c-0.4,0.2-0.8,0.6-1,1"/>
<path fill="none" stroke="#000000" stroke-width="0.3" d="M338,223v-1c0-1-1-2-3-2l-1,1"/>
<path fill="none" stroke="#000000" stroke-width="0.2" d="M343,224h1H343z M343,222h1v1L343,222z M342,221c0.3-0.2,0.7-0.2,1,0v1
	C342.4,222,342,221.6,342,221z M341,220h1c0,0.6-0.4,1-1,1C340.8,220.7,340.8,220.3,341,220z M339,220h1v1c0,1,0,0,0,0h-1V220z"/>
<path fill="#C8B100" d="M340,227h-2l-1-1l-1,1l-1-1l-2,1l-1-1l-1,1l-1-1l-1,1l-2-1l-1,1h-2l1,1c4.9-1.2,10.1-1.2,15,0V227"/>
<path fill="none" stroke="#000000" stroke-width="0.3" d="M340,227h-2l-1-1l-1,1l-1-1l-2,1l-1-1l-1,1l-1-1l-1,1l-2-1l-1,1h-2l1,1
	c4.9-1.2,10.1-1.2,15,0V227z"/>
<path fill="#FFFFFF" d="M325,222c0.3-0.2,0.7-0.2,1,0c0.2,0.3,0.2,0.7,0,1L325,222"/>
<path fill="none" stroke="#000000" stroke-width="0.2" d="M325,222c0.3-0.2,0.7-0.2,1,0c0.2,0.3,0.2,0.7,0,1L325,222z M326,221
	c-0.2-0.3-0.2-0.7,0-1c0.6,0,1,0.4,1,1C326.7,221.2,326.3,221.2,326,221z M327,220v-1l1,1H327z M328,219h1c1,0,0,0,0,0v1L328,219z
	 M330,219c0.3-0.2,0.7-0.2,1,0l-1,1C329.8,219.7,329.8,219.3,330,219z"/>
<path fill="none" stroke="#000000" stroke-width="0.3" stroke-linecap="round" d="M322,225c-0.4-0.2-0.8-0.6-1-1c0-1.7,1.3-3,3-3
	l2,1"/>
<path fill="none" stroke="#000000" stroke-width="0.3" d="M327,223v-1l2-2l2,1"/>
<path fill="none" stroke="#000000" stroke-width="0.2" d="M320,224h1H320z M321,222v1C320.8,222.7,320.8,222.3,321,222z M322,221
	c0.3-0.2,0.7-0.2,1,0c0,0.6-0.4,1-1,1C321.8,221.7,321.8,221.3,322,221z M323,220h1c0,0.6-0.4,1-1,1
	C322.8,220.7,322.8,220.3,323,220z M324,220h1c0.2,0.3,0.2,0.7,0,1h-1V220z"/>
<path fill="#C8B100" d="M332,225h1l1,1h1v-1v1l1,1c0.6,0.3,1.2,0.1,1.5-0.5s0.1-1.2-0.5-1.5h1c-0.2,0.3-0.2,0.7,0,1l1,1
	c0.6,0,1-0.4,1-1v1h1l1-1v1l-1,1h-1v-1c-0.2,0.4-0.6,0.8-1,1l-2-1c-0.3,0.1-0.7,0.1-1,0c-0.3,0.1-0.7,0.1-1,0h-1
	c-0.8,0.1-1.6-0.3-2-1c-0.4,0.7-1.2,1.1-2,1c-0.3,0.1-0.7,0.1-1,0h-4l-1,1c-0.3,0.1-0.7,0.1-1,0l-1-1v-1l1,1h2v-1l1,1l1-1
	c0.2-0.3,0.2-0.7,0-1l2,2l1-1v-1v1h1C331.6,226,332,225.6,332,225"/>
<path fill="none" stroke="#000000" stroke-width="0.3" d="M332,225h1l1,1h1v-1v1l1,1c0.6,0.3,1.2,0.1,1.5-0.5s0.1-1.2-0.5-1.5h1
	c-0.2,0.3-0.2,0.7,0,1l1,1c0.6,0,1-0.4,1-1v1h1l1-1v1l-1,1h-1v-1c-0.2,0.4-0.6,0.8-1,1l-2-1c-0.3,0.1-0.7,0.1-1,0
	c-0.3,0.1-0.7,0.1-1,0h-1c-0.8,0.1-1.6-0.3-2-1c-0.4,0.7-1.2,1.1-2,1c-0.3,0.1-0.7,0.1-1,0h-4l-1,1c-0.3,0.1-0.7,0.1-1,0l-1-1v-1
	l1,1h2v-1l1,1l1-1c0.2-0.3,0.2-0.7,0-1l2,2l1-1v-1v1h1C331.6,226,332,225.6,332,225z"/>
<path fill="#C8B100" d="M332,228l-7,1l-1-1l8-1l8,1h1l-1,1L332,228"/>
<path fill="none" stroke="#000000" stroke-width="0.3" d="M332,228l-7,1l-1-1l8-1l8,1h1l-1,1L332,228z"/>
<path fill="#FFFFFF" d="M329,229l1-1v1H329"/>
<path fill="none" stroke="#000000" stroke-width="0.3" d="M329,229l1-1v1H329z"/>
<path fill="#AD1519" d="M332,229h-1v-1h3l-1,1H332"/>
<path fill="none" stroke="#000000" stroke-width="0.3" d="M332,229h-1v-1h3l-1,1H332"/>
<path fill="#058E6E" d="M327,229h-1H327l1-1v1H327"/>
<path fill="none" stroke="#000000" stroke-width="0.3" d="M327,229h-1H327l1-1v1H327"/>
<path fill="#AD1519" d="M325,230v-1V230"/>
<path fill="none" stroke="#000000" stroke-width="0.3" d="M325,230v-1V230"/>
<path fill="#FFFFFF" d="M334,229l1-1v1H334"/>
<path fill="none" stroke="#000000" stroke-width="0.3" d="M334,229l1-1v1H334z"/>
<path fill="#058E6E" d="M337,229h1H337v-1l-1,1H337"/>
<path fill="none" stroke="#000000" stroke-width="0.3" d="M337,229h1H337v-1l-1,1H337"/>
<path fill="#AD1519" d="M340,230v-1h-1L340,230"/>
<path fill="none" stroke="#000000" stroke-width="0.3" d="M340,230v-1h-1L340,230"/>
<path fill="#AD1519" d="M332,232c-2-0.1-4-0.4-6-1c4.3-1,8.7-1,13,0C336.7,231.6,334.4,232,332,232"/>
<path fill="none" stroke="#000000" stroke-width="0.3" stroke-linejoin="round" d="M332,232c-2-0.1-4-0.4-6-1c4.3-1,8.7-1,13,0
	C336.7,231.6,334.4,232,332,232z"/>
<path fill="none" stroke="#000000" stroke-width="0.3" d="M340,226"/>
<path fill="#C8B100" d="M335,225v1V225"/>
<path fill="none" stroke="#000000" stroke-width="0.3" d="M335,225v1V225z"/>
<path fill="#C8B100" d="M330,225v1V225"/>
<path fill="none" stroke="#000000" stroke-width="0.3" d="M330,225v1V225z"/>
<path fill="#C8B100" d="M325,226h-1"/>
<path fill="none" stroke="#000000" stroke-width="0.3" d="M325,226h-1H325z"/>
<path fill="#C8B100" d="M332,222v3l1-1v-1L332,222"/>
<path fill="none" stroke="#000000" stroke-width="0.3" d="M332,222v3l1-1v-1L332,222"/>
<path fill="#C8B100" d="M330,225h2v-1h-1L330,225"/>
<path fill="none" stroke="#000000" stroke-width="0.3" d="M330,225h2v-1h-1L330,225"/>
<path fill="#C8B100" d="M334,225h-1l-1-1h2V225"/>
<path fill="none" stroke="#000000" stroke-width="0.3" d="M334,225h-1l-1-1h2V225"/>
<path fill="#C8B100" d="M327,223l-1,1l1,1l1-2H327"/>
<path fill="none" stroke="#000000" stroke-width="0.3" d="M327,223l-1,1l1,1l1-2H327"/>
<path fill="#C8B100" d="M325,225l1,1l1-1H325"/>
<path fill="none" stroke="#000000" stroke-width="0.3" d="M325,225l1,1l1-1H325"/>
<path fill="#C8B100" d="M329,225h-2l1-1L329,225"/>
<path fill="none" stroke="#000000" stroke-width="0.3" d="M329,225h-2l1-1L329,225"/>
<path fill="#C8B100" d="M324,226h-2l1-1h1"/>
<path fill="none" stroke="#000000" stroke-width="0.3" d="M324,226h-2l1-1h1"/>
<path fill="#C8B100" d="M327,225c-0.2-0.3-0.2-0.7,0-1c0.6,0,1,0.4,1,1C327.7,225.2,327.3,225.2,327,225"/>
<path fill="none" stroke="#000000" stroke-width="0.3" d="M327,225c-0.2-0.3-0.2-0.7,0-1c0.6,0,1,0.4,1,1
	C327.7,225.2,327.3,225.2,327,225z"/>
<path fill="#C8B100" d="M338,223l1,1l-1,1l-1-2H338"/>
<path fill="none" stroke="#000000" stroke-width="0.3" d="M338,223l1,1l-1,1l-1-2H338"/>
<path fill="#C8B100" d="M340,225l-1,1l-1-1H340"/>
<path fill="none" stroke="#000000" stroke-width="0.3" d="M340,225l-1,1l-1-1H340"/>
<path fill="#C8B100" d="M336,225h2l-2-1V225"/>
<path fill="none" stroke="#000000" stroke-width="0.3" d="M336,225h2l-2-1V225"/>
<path fill="#C8B100" d="M341,226h1l-1-1"/>
<path fill="none" stroke="#000000" stroke-width="0.3" d="M341,226h1l-1-1"/>
<path fill="#C8B100" d="M332,225v-1l1,1H332"/>
<path fill="none" stroke="#000000" stroke-width="0.3" d="M332,225v-1l1,1H332z"/>
<path fill="#C8B100" d="M337,225c0-0.6,0.4-1,1-1v1C337.7,225.2,337.3,225.2,337,225"/>
<path fill="none" stroke="#000000" stroke-width="0.3" d="M337,225c0-0.6,0.4-1,1-1v1C337.7,225.2,337.3,225.2,337,225z"/>
<path fill="#C8B100" d="M331,219l1-1l1,1l-1,1C331.4,220,331,219.6,331,219"/>
<path fill="#C8B100" d="M333,219h-1v-2h-1h1v-1h1V219"/>
<path fill="none" stroke="#000000" stroke-width="0.3" d="M333,219h-1v-2h-1h1v-1h1V219z"/>
<path fill="#C8B100" d="M334,219h-3h1v-2h-1h1v-1h1v3H334"/>
<path fill="none" stroke="#000000" stroke-width="0.3" d="M333,218c0.2,0.3,0.2,0.7,0,1l-1,1c-0.6,0-1-0.4-1-1l1-1"/>
<path fill="#C8B100" d="M322,226h-1l-1-1h2V226"/>
<path fill="none" stroke="#000000" stroke-width="0.3" d="M322,226h-1l-1-1h2V226z"/>
<path fill="#C8B100" d="M322,226v1V226"/>
<path fill="none" stroke="#000000" stroke-width="0.3" d="M322,226v1V226z"/>
<path fill="#C8B100" d="M343,226l1-1h-2v1H343"/>
<path fill="none" stroke="#000000" stroke-width="0.3" d="M343,226l1-1h-2v1H343z"/>
<path fill="#C8B100" d="M343,226h-1v1h1V226"/>
<path fill="none" stroke="#000000" stroke-width="0.3" d="M343,226h-1v1h1V226z"/>
<path fill="#C8B100" d="M321,238h23v-6h-23V238z"/>
<path fill="none" stroke="#000000" stroke-width="0.4" d="M321,238h23v-6h-23V238z"/>
<path fill="#C8B100" d="M341,242h-18l1-1l-1-2h18l-1,2L341,242"/>
<path fill="none" stroke="#000000" stroke-width="0.4" stroke-linejoin="round" d="M341,242h-18l1-1l-1-2h18l-1,2L341,242z"/>
<path fill="#C8B100" d="M324,242h17l1,1l-1,1h-17l-1-1L324,242"/>
<path fill="none" stroke="#000000" stroke-width="0.4" d="M324,242h17l1,1l-1,1h-17l-1-1L324,242z"/>
<path fill="#C8B100" d="M324,238h17l1,1h-19L324,238"/>
<path fill="none" stroke="#000000" stroke-width="0.4" d="M324,238h17l1,1h-19L324,238z"/>
<path fill="#005BBF" d="M316,339l4-1c1.2-0.6,2.6-1,4-1l4,1l4,1c1.4,0,2.8-0.4,4-1s2.6-1,4-1l4,1l4,1v2c-1.4,0-2.8-0.4-4-1
	s-2.6-1-4-1l-4,1c-1.2,0.6-2.6,1-4,1c-1.4,0-2.8-0.4-4-1s-2.6-1-4-1l-4,1c-1.2,0.6-2.6,1-4,1V339"/>
<path fill="none" stroke="#000000" stroke-width="0.4" d="M316,339l4-1c1.2-0.6,2.6-1,4-1l4,1l4,1c1.4,0,2.8-0.4,4-1s2.6-1,4-1l4,1
	l4,1v2c-1.4,0-2.8-0.4-4-1s-2.6-1-4-1l-4,1c-1.2,0.6-2.6,1-4,1c-1.4,0-2.8-0.4-4-1s-2.6-1-4-1l-4,1c-1.2,0.6-2.6,1-4,1V339z"/>
<path fill="#CCCCCC" d="M316,341c1.4,0,2.8-0.4,4-1s2.6-1,4-1l4,1c1.2,0.6,2.6,1,4,1l4-1c1.2-0.6,2.6-1,4-1c1.4,0,2.8,0.3,4,1
	c1.2,0.6,2.6,1,4,1v2c-1.3,0.3-2.7,0.3-4,0c-1.2-0.6-2.6-1-4-1l-4,1c-1.2,0.6-2.6,1-4,1c-1.4,0-2.8-0.4-4-1s-2.6-1-4-1
	c-1.4,0-2.8,0.4-4,1s-2.6,1-4,1V341"/>
<path fill="none" stroke="#000000" stroke-width="0.4" d="M316,341c1.4,0,2.8-0.4,4-1s2.6-1,4-1l4,1c1.2,0.6,2.6,1,4,1l4-1
	c1.2-0.6,2.6-1,4-1c1.4,0,2.8,0.3,4,1c1.2,0.6,2.6,1,4,1v2c-1.3,0.3-2.7,0.3-4,0c-1.2-0.6-2.6-1-4-1l-4,1c-1.2,0.6-2.6,1-4,1
	c-1.4,0-2.8-0.4-4-1s-2.6-1-4-1c-1.4,0-2.8,0.4-4,1s-2.6,1-4,1V341"/>
<path fill="#005BBF" d="M316,344l4-1c1.2-0.6,2.6-1,4-1c1.4,0,2.8,0.4,4,1l4,1l4-1c1.2-0.6,2.6-1,4-1l4,1l4,1v2c-1.4,0-2.8-0.4-4-1
	s-2.6-1-4-1c-1.4,0-2.8,0.4-4,1s-2.6,1-4,1c-1.4,0-2.8-0.4-4-1s-2.6-1-4-1l-4,1c-1.2,0.6-2.6,1-4,1v-3"/>
<path fill="none" stroke="#000000" stroke-width="0.4" d="M316,344l4-1c1.2-0.6,2.6-1,4-1c1.4,0,2.8,0.4,4,1l4,1l4-1
	c1.2-0.6,2.6-1,4-1l4,1l4,1v2c-1.4,0-2.8-0.4-4-1s-2.6-1-4-1c-1.4,0-2.8,0.4-4,1s-2.6,1-4,1c-1.4,0-2.8-0.4-4-1s-2.6-1-4-1l-4,1
	c-1.2,0.6-2.6,1-4,1v-3"/>
<path fill="#CCCCCC" d="M316,349c1.4,0,2.8-0.4,4-1s2.6-1,4-1c1.4,0,2.8,0.4,4,1l4,1l4-1c1.2-0.6,2.6-1,4-1l4,1l4,1v-3
	c-1.4,0-2.8-0.4-4-1s-2.6-1-4-1c-1.4,0-2.8,0.4-4,1s-2.6,1-4,1c-1.4,0-2.8-0.4-4-1s-2.6-1-4-1c-1.4,0-2.8,0.4-4,1s-2.6,1-4,1V349"/>
<path fill="none" stroke="#000000" stroke-width="0.4" d="M316,349c1.4,0,2.8-0.4,4-1s2.6-1,4-1c1.4,0,2.8,0.4,4,1l4,1l4-1
	c1.2-0.6,2.6-1,4-1l4,1l4,1v-3c-1.4,0-2.8-0.4-4-1s-2.6-1-4-1c-1.4,0-2.8,0.4-4,1s-2.6,1-4,1c-1.4,0-2.8-0.4-4-1s-2.6-1-4-1
	c-1.4,0-2.8,0.4-4,1s-2.6,1-4,1V349"/>
<path fill="#005BBF" d="M316,351l4-1c1.2-0.6,2.6-1,4-1c1.4,0,2.8,0.4,4,1l4,1l4-1c1.2-0.6,2.6-1,4-1l4,1l4,1v-2c-1.4,0-2.8-0.4-4-1
	s-2.6-1-4-1l-4,1c-1.2,0.6-2.6,1-4,1c-1.4,0-2.8-0.4-4-1s-2.6-1-4-1c-1.4,0-2.8,0.4-4,1s-2.6,1-4,1V351"/>
<path fill="none" stroke="#000000" stroke-width="0.4" d="M316,351l4-1c1.2-0.6,2.6-1,4-1c1.4,0,2.8,0.4,4,1l4,1l4-1
	c1.2-0.6,2.6-1,4-1l4,1l4,1v-2c-1.4,0-2.8-0.4-4-1s-2.6-1-4-1l-4,1c-1.2,0.6-2.6,1-4,1c-1.4,0-2.8-0.4-4-1s-2.6-1-4-1
	c-1.4,0-2.8,0.4-4,1s-2.6,1-4,1V351z"/>
<path fill="#C8B100" d="M341,329c0,2,1,3,3,3h-23c1,0,2-1,2-3H341"/>
<path fill="none" stroke="#000000" stroke-width="0.4" stroke-linejoin="round" d="M341,329c0,2,1,3,3,3h-23c1,0,2-1,2-3H341z"/>
<path fill="#C8B100" d="M324,327h17l1,1h-19L324,327"/>
<path fill="none" stroke="#000000" stroke-width="0.4" d="M324,327h17l1,1h-19L324,327z"/>
<path fill="#C8B100" d="M321,338h23v-6h-23V338z"/>
<path fill="none" stroke="#000000" stroke-width="0.4" d="M321,338h23v-6h-23V338z"/>
<path fill="#AD1519" d="M346,306l4,3l-2,2c-2,1-3,3-2,4c-2.5-2.2-2.7-6-0.5-8.5C345.6,306.3,345.8,306.2,346,306"/>
<path fill="none" stroke="#000000" stroke-width="0.4" d="M346,306l4,3l-2,2c-2,1-3,3-2,4c-2.5-2.2-2.7-6-0.5-8.5
	C345.6,306.3,345.8,306.2,346,306z"/>
<path fill="#CCCCCC" d="M324,326h17v-82h-17V326z"/>
<path fill="none" stroke="#000000" stroke-width="0.4" d="M336,244v82 M338,244v82 M324,326h17v-82h-17V326z"/>
<path fill="#AD1519" d="M307,275c8.1-2.7,16.6-3.3,25-2c10,2,18,5,17,9l4-9c0-3-8-8-19-10c-3.3-0.3-6.7-0.3-10,0c-7,0-13,0-17,2V275
	"/>
<path fill="none" stroke="#000000" stroke-width="0.4" stroke-linejoin="round" d="M307,275c8.1-2.7,16.6-3.3,25-2c10,2,18,5,17,9
	l4-9c0-3-8-8-19-10c-3.3-0.3-6.7-0.3-10,0c-7,0-13,0-17,2V275"/>
<path fill="#AD1519" d="M341,285c4,0,8-1,8-3s-1-4-4-5h-4V285"/>
<path fill="none" stroke="#000000" stroke-width="0.4" d="M341,285c4,0,8-1,8-3s-1-4-4-5h-4V285"/>
<path fill="#AD1519" d="M324,279l-6,2c-1,1,2,3,6,6V279"/>
<path fill="none" stroke="#000000" stroke-width="0.4" d="M324,279l-6,2c-1,1,2,3,6,6V279"/>
<path fill="#AD1519" d="M351,301c1-1-4-4-10-6l-9-4c-8-4-15-8-14-10l-1,8c-1,2,5,6,13,10l11,4l9,6L351,301"/>
<path fill="none" stroke="#000000" stroke-width="0.4" stroke-linejoin="round" d="M351,301c1-1-4-4-10-6l-9-4c-8-4-15-8-14-10l-1,8
	c-1,2,5,6,13,10l11,4l9,6L351,301z"/>
<path fill="#C8B100" d="M318,271l2-7c-0.3,0-0.7,0-1,0l-2,6l-3-5h-2c1.4,2,2.7,4,4,6h1 M324,264h-2v7h4v-1c-0.7,0-1.3,0-2,0V264
	 M331,265l2,1v-1l-6-1v1h2v6h1L331,265 M334,272h1l1-3l1,2l1,2h2h-1l-1-3l2-2v-1c-0.6-0.5-1.3-0.8-2-1h-3L334,272 M337,266l1,1
	c0.1,0.3,0.1,0.7,0,1l-2,1L337,266 M345,274v2l1,1h1l1-7c-0.4-0.3-0.7-0.6-1-1l-7,4l1,1l2-1L345,274z M344,272l2-1l-1,2L344,272"/>
<path fill="none" stroke="#000000" stroke-width="0.1" d="M230,205c0-1,1-2,3-2l2,2l-2,2c-1,0.6-2.2,0.2-2.7-0.7
	C230,205.9,229.9,205.4,230,205z"/>
<path fill="#AD1519" stroke="#000000" stroke-width="0.3" d="M255,187c7,0,13,1,17,3c2.9,1.1,5.9,1.8,9,2h7l11,3
	c2.9,1.2,5.6,2.9,8,5l-2,1v4l-5,5l-2,2l-5,4h-3l-1,3l-33-4l-34,4l-1-3h-3l-5-4l-2-2l-4-5l-1-4l-2-1c2.4-2.1,5.1-3.8,8-5l11-3h7
	c3.1-0.2,6.1-0.9,9-2C243,188,249,187,255,187z"/>
<path fill="#C8B100" stroke="#000000" stroke-width="0.4" d="M256,232c-13,0-24-2-32-4l-1-2c0-0.6,0.4-1,1-1c10.4-2.8,21.2-4.1,32-4
	c12,0,24,2,32,4l1,1l-1,2C277.6,230.8,266.8,232.1,256,232"/>
<path fill="#AD1519" d="M256,230c-9.8,0.2-19.5-0.8-29-3c7-2,18-4,29-4c9.8,0.2,19.5,1.5,29,4C278,229,267,230,256,230"/>
<path fill="none" stroke="#000000" stroke-width="0.1" d="M257,230v-7 M255,230v-7"/>
<path fill="none" stroke="#000000" stroke-width="0.2" d="M253,230v-7 M251,230v-7"/>
<path fill="none" stroke="#000000" stroke-width="0.3" d="M250,230v-7 M247,230v-6 M248,230v-7"/>
<path fill="none" stroke="#000000" stroke-width="0.4" d="M244,229v-5 M246,230v-6 M241,229v-5 M242,229v-5 M243,229v-5"/>
<path fill="none" stroke="#000000" stroke-width="0.5" d="M239,229v-5 M238,229v-5"/>
<path fill="none" stroke="#000000" stroke-width="0.6" d="M237,229v-5 M234,228v-3 M236,229v-4"/>
<path fill="none" stroke="#000000" stroke-width="0.7" d="M233,228v-3 M232,228v-3"/>
<path fill="none" stroke="#000000" stroke-width="0.8" d="M231,228v-2 M229,227v-1"/>
<path fill="none" stroke="#000000" stroke-width="0.9" d="M228,227v-1"/>
<path fill="none" stroke="#000000" stroke-width="0.1" d="M264,230v-7 M261,230v-7 M259,230v-7"/>
<path fill="#C8B100" stroke="#000000" stroke-width="0.4" d="M256,221c-10.8-0.2-21.6,1.2-32,4l-1-3l-2-2c11.4-3.3,23.2-4.9,35-5
	c14,0,26,2,35,5c0,0-2,0-3,2v3C280,223,269,221,256,221"/>
<path fill="#C8B100" stroke="#000000" stroke-width="0.4" d="M256,215c-11.8,0.1-23.6,1.8-35,5l-2-1c0-0.6,0.4-1,1-1c9-3,22-5,36-5
	s27,2,36,5v1l-1,1C282,217,270,215,256,215"/>
<path fill="none" stroke="#000000" stroke-width="0.4" stroke-linejoin="round" d="M256,230c-9.8,0.2-19.5-0.8-29-3c7-2,18-4,29-4
	c9.8,0.2,19.5,1.5,29,4C278,229,267,230,256,230z"/>
<path fill="#FFFFFF" stroke="#000000" stroke-width="0.4" d="M246,219l1-2l1,1l-1,2C246.4,220,246,219.6,246,219"/>
<path fill="#AD1519" stroke="#000000" stroke-width="0.4" d="M256,219h-3l-2-1l1-1h7c0.6,0,1,0.4,1,1l-1,1H256"/>
<path fill="#058E6E" stroke="#000000" stroke-width="0.4" d="M239,220h-4c-0.6-0.3-0.8-0.9-0.5-1.5s0.9-0.8,1.5-0.5h5
	c0.6,0,1,0.4,1,1l-1,1H239"/>
<path fill="#FFFFFF" stroke="#000000" stroke-width="0.4" d="M229,220l1-1c0.6,0,1,0.4,1,1l-1,2c-0.6,0-1-0.4-1-1"/>
<path fill="#AD1519" stroke="#000000" stroke-width="0.4" d="M222,222l1-1h3l-2,2L222,222"/>
<path fill="#058E6E" stroke="#000000" stroke-width="0.4" d="M273,220h3c0.6,0,1-0.4,1-1s-0.4-1-1-1h-5l-2,1l1,1H273"/>
<path fill="#FFFFFF" stroke="#000000" stroke-width="0.4" d="M263,219l2-2l1,1l-1,2c-0.3,0.6-0.9,0.8-1.5,0.5S262.7,219.6,263,219
	 M280,221l1-2c0.3-0.6,0.9-0.8,1.5-0.5s0.8,0.9,0.5,1.5l-2,2C280.4,222,280,221.6,280,221"/>
<path fill="#AD1519" stroke="#000000" stroke-width="0.4" d="M290,222l-1-1h-4l3,2L290,222"/>
<path fill="none" stroke="#000000" stroke-width="0.4" d="M225,227c20.4-5,41.6-5,62,0"/>
<path fill="#C8B100" d="M230,196l2,1l2-3c-2.8-1.6-4.4-4.8-4-8c0-4,6-8,13-8l9,3v-2c-2.7-1.7-5.8-2.8-9-3c-8,0-14,5-15,10
	c0,3.1,1.5,6.1,4,8L230,196"/>
<path fill="none" stroke="#000000" stroke-width="0.4" d="M230,196l2,1l2-3c-2.8-1.6-4.4-4.8-4-8c0-4,6-8,13-8l9,3v-2
	c-2.7-1.7-5.8-2.8-9-3c-8,0-14,5-15,10c0,3.1,1.5,6.1,4,8L230,196"/>
<path fill="#C8B100" d="M231,196c-2.9-1.7-4.8-4.7-5-8c0-3,2-6,6-8c-2.1,1.4-3.6,3.5-4,6c0,3.1,1.5,6.1,4,8L231,196"/>
<path fill="none" stroke="#000000" stroke-width="0.4" d="M231,196c-2.9-1.7-4.8-4.7-5-8c0-3,2-6,6-8c-2.1,1.4-3.6,3.5-4,6
	c0,3.1,1.5,6.1,4,8L231,196"/>
<path fill="#C8B100" d="M207,200c-2-1.8-3.1-4.3-3-7l1-4c2-4,9-8,17-8l7,1l-1,2c-2-0.6-4-0.9-6-1c-7,0-13,3-15,7
	c-0.5,0.9-0.9,1.9-1,3c0.1,2.3,1.2,4.5,3,6l-3,5l-1-2L207,200"/>
<path fill="none" stroke="#000000" stroke-width="0.4" d="M207,200c-2-1.8-3.1-4.3-3-7l1-4c2-4,9-8,17-8l7,1l-1,2c-2-0.6-4-0.9-6-1
	c-7,0-13,3-15,7c-0.5,0.9-0.9,1.9-1,3c0.1,2.3,1.2,4.5,3,6l-3,5l-1-2L207,200z"/>
<path fill="#C8B100" d="M210,185c-2,0.8-3.8,2.2-5,4c-0.6,1.2-1,2.6-1,4c0,3,1,5,3,7l-2,2c-1.4-2-2.1-4.5-2-7
	C203,191,205,187,210,185"/>
<path fill="none" stroke="#000000" stroke-width="0.4" d="M210,185c-2,0.8-3.8,2.2-5,4c-0.6,1.2-1,2.6-1,4c0,3,1,5,3,7l-2,2
	c-1.4-2-2.1-4.5-2-7C203,191,205,187,210,185z"/>
<path fill="#C8B100" d="M256,175c2,0,3,2,4,3v6l1,9l-5,5l-6-5l1-9v-1l1-5C252,177,254,175,256,175"/>
<path fill="none" stroke="#000000" stroke-width="0.4" d="M256,175c2,0,3,2,4,3v6l1,9l-5,5l-6-5l1-9v-1l1-5C252,177,254,175,256,175
	z"/>
<path fill="#C8B100" d="M256,177c1.1,0,2,0.9,2,2c0.1,1.3,0.1,2.7,0,4v1l1,8l-3,4l-4-4l1-8v-1l1-4L256,177"/>
<path fill="none" stroke="#000000" stroke-width="0.4" d="M256,177c1.1,0,2,0.9,2,2c0.1,1.3,0.1,2.7,0,4v1l1,8l-3,4l-4-4l1-8v-1l1-4
	L256,177z"/>
<path fill="#C8B100" d="M281,196l-1,1l-3-3c2.8-1.6,4.4-4.8,4-8c0-4-5-8-12-8c-3.2,0.1-6.4,1.1-9,3c0-0.7,0-1.3,0-2
	c2.7-1.7,5.8-2.8,9-3c8,0,14,5,14,10c0.2,3-0.9,5.9-3,8L281,196"/>
<path fill="none" stroke="#000000" stroke-width="0.4" d="M281,196l-1,1l-3-3c2.8-1.6,4.4-4.8,4-8c0-4-5-8-12-8
	c-3.2,0.1-6.4,1.1-9,3c0-0.7,0-1.3,0-2c2.7-1.7,5.8-2.8,9-3c8,0,14,5,14,10c0.2,3-0.9,5.9-3,8L281,196"/>
<path fill="#C8B100" d="M281,196c3-2,4-5,4-8s-2-6-5-8c2,1.8,3.1,4.3,3,7c0,3-1,5-3,7L281,196"/>
<path fill="none" stroke="#000000" stroke-width="0.4" d="M281,196c3-2,4-5,4-8s-2-6-5-8c2,1.8,3.1,4.3,3,7c0,3-1,5-3,7L281,196"/>
<path fill="#C8B100" d="M305,200c2.8-3,3.2-7.5,1-11c-2-4-9-8-17-8c-2,0.1-4,0.4-6,1l1,2c1.6-0.5,3.3-0.8,5-1c8,0,14,3,16,7v3
	c-0.1,2.3-1.2,4.5-3,6l3,5l2-2L305,200"/>
<path fill="none" stroke="#000000" stroke-width="0.4" d="M305,200c2.8-3,3.2-7.5,1-11c-2-4-9-8-17-8c-2,0.1-4,0.4-6,1l1,2
	c1.6-0.5,3.3-0.8,5-1c8,0,14,3,16,7v3c-0.1,2.3-1.2,4.5-3,6l3,5l2-2L305,200z"/>
<path fill="#C8B100" d="M302,185c1.7,1,3,2.3,4,4c0.6,1.2,1,2.6,1,4l-2,7l1,2c1.8-1.9,2.9-4.4,3-7C309,191,306,187,302,185"/>
<path fill="none" stroke="#000000" stroke-width="0.4" d="M302,185c1.7,1,3,2.3,4,4c0.6,1.2,1,2.6,1,4l-2,7l1,2c1.8-1.9,2.9-4.4,3-7
	C309,191,306,187,302,185z"/>
<path fill="#FFFFFF" d="M254,194l2-2l2,1c0,1.1-0.9,2-2,2C255.2,195.1,254.4,194.7,254,194"/>
<path fill="none" stroke="#000000" stroke-width="0.4" d="M254,194l2-2l2,1c0,1.1-0.9,2-2,2C255.2,195.1,254.4,194.7,254,194z"/>
<path fill="#FFFFFF" stroke="#000000" stroke-width="0.4" d="M254,190c0-1.1,0.9-2,2-2c1.1,0,2,0.9,2,2s-0.9,2-2,2
	C254.9,192,254,191.1,254,190 M254,186l2-1l1,1l-1,1L254,186 M255,182l1-1c0.6,0,1,0.4,1,1l-1,2c-0.6,0-1-0.4-1-1 M255,179h2l-1,1
	L255,179"/>
<path fill="#C8B100" stroke="#000000" stroke-width="0.4" d="M256,205h1c-0.6,2.7,1.2,5.3,3.9,5.9c0.4,0.1,0.7,0.1,1.1,0.1
	c2.1,0.2,4.1-1,5-3v-2l1,2c0,2,2,4,5,4c2.8,0,5-2.2,5-5l1-2l1,2c-0.2,0.7-0.2,1.3,0,2c0,2.4,1.6,4.5,4,5c1.6,0,3.1-0.7,4-2l1-2v2
	c0,2,1,3,3,3l4-1c1.1-1.2,2.1-2.6,3-4l1,2l-4,4c-2,1-3,2-5,1l-3-2c-0.9,0.6-1.9,0.9-3,1c-2.9,0.3-5.7-1.3-7-4c-3.3,2.7-8.2,2.2-11-1
	c-1.3,1.3-3.1,2-5,2c-2.4,0.1-4.6-1-6-3c-1.4,2-3.6,3.1-6,3c-1.9,0-3.7-0.7-5-2c-2.8,3.2-7.7,3.7-11,1c-1.3,2.7-4.1,4.3-7,4
	c-1.1-0.1-2.1-0.4-3-1l-3,2c-2,1-4,0-5-1l-4-4v-2l4,4l4,1c2,0,2-1,2-3v-2l1,2c0.9,1.3,2.4,2,4,2c3,0,5-2,5-5v-4l2,2c0,2.8,2.2,5,5,5
	c3,0,5-2,5-4v-2l1,2c0.9,2,2.9,3.2,5,3c2.8,0.1,5-2.1,5.1-4.9c0-0.4,0-0.7-0.1-1.1H256"/>
<path fill="#FFFFFF" stroke="#000000" stroke-width="0.4" d="M291,211l-1-2l-2,1l1,2l1-1 M268,207v-2l-2,1l1,2l2-1 M243,207l1-2l1,1
	c1,1,0,2-1,2L243,207 M221,211l1-2l1,1v2L221,211"/>
<path fill="#C8B100" stroke="#000000" stroke-width="0.4" d="M231,196c1,0.8,1.7,1.8,2,3c0,0,0,0,1,0l1-1v2l-1,2
	c0.1,0.7,0.1,1.3,0,2c-0.4-0.7-1.2-1.1-2-1c-0.4,0.2-0.8,0.6-1,1c0,0-1,0-1-1l-2-2v-1h2C229.7,198.6,230.1,197.1,231,196"/>
<path fill="#C8B100" stroke="#000000" stroke-width="0.4" d="M231,207c-0.1-0.3-0.1-0.7,0-1c-0.4-0.6-0.4-1.4,0-2h-2l-2-1h-2l1,1v1
	c-1.2,0.3-2.3,1-3,2c1.2,0.8,2.6,1.1,4,1v1h1l2-1L231,207 M234,206c0.1-0.3,0.1-0.7,0-1c0.1-0.3,0.1-0.7,0-1l1-1l3-1l1-1v1l-1,1
	c1.4-0.1,2.8,0.2,4,1c-0.7,1-1.8,1.7-3,2c0.3,0.4,0.6,0.7,1,1h-4L234,206"/>
<path fill="#AD1519" stroke="#000000" stroke-width="0.4" d="M230,205c0-1,1-2,3-2l2,2l-2,2c-1,0.6-2.2,0.2-2.7-0.7
	C230,205.9,229.9,205.4,230,205"/>
<path fill="#C8B100" stroke="#000000" stroke-width="0.4" d="M256,193c1.2,1,1.9,2.5,2,4c0,0,0,0,1-1h1v2l-1,2c-0.2,0.7-0.6,1.4-1,2
	c-0.4-0.7-1.2-1.1-2-1l-2,1l-1-2l-1-2v-2h1l1,1C254.1,195.5,254.8,194,256,193 M254,205c-0.4-0.6-0.4-1.4,0-2v-1l-2-1l-2-1h-2l1,1
	l-4,2c1,1.2,2.5,1.9,4,2l-1,1v1l2-1h2L254,205 M257,205l1-2c0.1-0.3,0.1-0.7,0-1l2-1l2-1h1v1c0,0.3,0,0.7,0,1c1.4-0.1,2.8,0.2,4,1
	c-1,1.2-2.5,1.9-4,2v2h-1l-2-1c-0.7-0.3-1.4-0.6-2-1 M281,196c-1,0.8-1.7,1.8-2,3h-1l-1-1v4l1,2c0.4-0.7,1.2-1.1,2-1
	c0.4,0.2,0.8,0.6,1,1l1-1l1-2l1-1h-2C282.3,198.6,281.9,197.1,281,196 M281,207v-1c0.4-0.6,0.4-1.4,0-2h2l2-1h1v2c1.2,0.3,2.3,1,3,2
	c-1.2,0.8-2.6,1.1-4,1v1h-1l-2-1C281.6,207.7,281.3,207.4,281,207 M278,206c-0.4-0.2-0.8-0.6-1-1l1-1l-1-1l-3-1l-1-1v1l1,1
	c-1.4-0.1-2.8,0.2-4,1l3,2l-1,1h4L278,206"/>
<path fill="#AD1519" stroke="#000000" stroke-width="0.4" d="M277,205l2-2l2,2c1,1,0,2-2,2C277.9,207,277,206.1,277,205 M302,210h-3
	v2h2L302,210"/>
<path fill="#C8B100" stroke="#000000" stroke-width="0.4" d="M299,211v-1h3l2-3h4c0-1.7-1.3-3-3-3l-3,1v-1l-2,2v4l-1-2
	c-0.6-0.8-1.2-1.4-2-2h-2v1c-1.4,0-2.8,0.3-4,1c0.7,1,1.8,1.7,3,2l-1,1h1l3,1C297.7,211.7,298.4,211.4,299,211 M213,211
	c-0.2-0.4-0.6-0.8-1-1h-2l-3-3h-3c0-1.7,1.3-3,3-3l2,1v-1l2,2v4l1-2l3-2h1c0,0.3,0,0.7,0,1c1.4,0,2.8,0.3,4,1c-0.5,0.8-1.2,1.5-2,2
	v1h1h-1l-3,1C214.3,211.7,213.6,211.4,213,211"/>
<path fill="#AD1519" stroke="#000000" stroke-width="0.4" d="M210,210h2l1,2h-2L210,210 M254,203l2-2l2,2l-2,2
	C254.9,205,254,204.1,254,203"/>
<path fill="#005BBF" stroke="#000000" stroke-width="0.3" d="M251,171c0-2,2-4,5-4c2,0,4,2,4,4c0.6,2.1-0.7,4.3-2.9,4.9
	c-0.4,0.1-0.7,0.1-1.1,0.1c-2.1,0.7-4.3-0.5-5-2.6C250.8,172.6,250.8,171.8,251,171"/>
<path fill="#C8B100" stroke="#000000" stroke-width="0.3" d="M255,159v3h-3v2h3v7h-4l1,2h8c0.2-0.7,0.2-1.3,0-2h-3v-7h2v-2h-2v-3
	H255z"/>
<path fill="#CCCCCC" d="M256,353c-13.2-0.1-26.2-3.2-38-9c-8.2-4.2-13.3-12.8-13-22v-34h102v34c1,10-5,18-13,22
	C282.2,349.9,269.2,353,256,353"/>
<path fill="none" stroke="#000000" stroke-width="0.5" d="M256,353c-13.2-0.1-26.2-3.2-38-9c-8.2-4.2-13.3-12.8-13-22v-34h102v34
	c1,10-5,18-13,22C282.2,349.9,269.2,353,256,353z"/>
<path fill="#CCCCCC" d="M256,288h52v-57h-52V288z"/>
<path fill="none" stroke="#000000" stroke-width="0.5" d="M256,288h52v-57h-52V288z"/>
<path fill="#AD1519" d="M256,322c0,13.8-11.2,25-25,25c-0.3,0-0.7,0-1,0c-14,0-25-11-25-25v-34h51V322"/>
<path fill="#C8B100" stroke="#000000" stroke-width="0.5" d="M216,342l6,3v-58h-6V342z"/>
<path fill="#C8B100" stroke="#000000" stroke-width="0.5" stroke-linejoin="round" d="M205,322c0.1,5.9,2.3,11.5,6,16v-51h-6V322z"
	/>
<path fill="#C7B500" stroke="#000000" stroke-width="0.5" d="M227,346h6v-59h-6V346z"/>
<path fill="#C8B100" stroke="#000000" stroke-width="0.5" d="M239,345c2.2-0.7,4.2-1.7,6-3v-55h-6V345z"/>
<path fill="#AD1519" d="M205,288h51v-57h-51V288z"/>
<path fill="none" stroke="#000000" stroke-width="0.5" d="M205,288h51v-57h-51V288z"/>
<path fill="#C8B100" stroke="#000000" stroke-width="0.5" d="M250,337c3-2,5-7,6-13v-37h-6V337z"/>
<path fill="none" stroke="#000000" stroke-width="0.5" d="M256,322c0,13.8-11.2,25-25,25c-0.3,0-0.7,0-1,0c-14,0-25-11-25-25v-34h51
	V322"/>
<path fill="#AD1519" d="M308,288v34c-0.5,13.8-12.2,24.5-26,24c0,0,0,0,0,0c-14,0-26-11-26-24v-34H308"/>
<path fill="none" stroke="#000000" stroke-width="0.5" d="M308,288v34c-0.5,13.8-12.2,24.5-26,24c0,0,0,0,0,0c-14,0-26-11-26-24v-34
	H308"/>
<path fill="#C8B100" d="M265,314c1,1,0,1-1,1l-1-1h-1c-0.1,1.3,0.7,2.6,2,3v4h1v-4c1-0.3,1.7-1,2-2h5v-1H265 M288,314v1h-4
	c0.1,0.3,0.1,0.7,0,1l5,5l-1,1l-5-5v9h-2v-9l-5,5l-2-1l5-5c-0.1-0.3-0.1-0.7,0-1h-4v-1h14H288z M291,314v1h5l2,2v4h2v-4
	c1.3-0.4,2.1-1.7,2-3h-2c0,0.6-0.4,1-1,1l-1-1H291 M284,337c1.4-0.2,2.7-0.5,4-1l1,2c-1.6,0.6-3.3,0.9-5,1c-0.3,1-1,1.7-2,2
	c-1.3,0.1-2.6-0.7-3-2c-1.7-0.1-3.4-0.4-5-1l1-2l4,1c0.5-0.6,1.2-0.9,2-1v-7h1v7C282.8,336.1,283.5,336.4,284,337z M273,335l-1,1
	c-1.5-0.8-2.8-1.8-4-3c-0.9,0.5-2.1,0.5-3,0c-1-1.1-1-2.9,0-4c-0.6-1.6-0.9-3.3-1-5h1c0.1,1.4,0.5,2.7,1,4c0.6-0.2,1.4-0.2,2,0l4-5
	l2,1l-5,5c0.5,0.9,0.5,2.1,0,3c0.9,1.1,1.9,2.1,3,3H273z M266,330c0-0.6,0.4-1,1-1s1,0.4,1,1c0.2,0.3,0.2,0.7,0,1
	c0.3,0.6,0.1,1.2-0.5,1.5s-1.2,0.1-1.5-0.5c-0.6,0-1-0.4-1-1S265.4,330,266,330z M264,325h-2v-5l1-1v3L264,325z M265,319l2,1v4l-1,1
	l-1-3V319z M271,334c1.5,1.3,3.2,2.3,5,3l1-2c-1.8-0.4-3.5-1-5-2L271,334 M270,335c1.5,1.3,3.2,2.3,5,3l-1,1c-1.4-0.5-2.7-1.2-4-2
	v-1 M273,326h1l3-3l-1-2l-3,4 M271,324l-1-1l3-4l2,1L271,324 M291,335v1c1.5-0.8,2.8-1.8,4-3h3c1-1.1,1-2.9,0-4l1-5h-1
	c-0.1,1.4-0.5,2.7-1,4c-0.6-0.2-1.4-0.2-2,0l-4-5l-2,1l5,5c-0.5,0.9-0.5,2.1,0,3C293.1,333.1,292.1,334.1,291,335z M297,330
	c0-0.6-0.4-1-1-1s-1,0.4-1,1c-0.2,0.3-0.2,0.7,0,1h2C297.2,330.7,297.2,330.3,297,330z M299,325h2v-5l-1-1v3L299,325z M298,319l-2,1
	v4l2,1V319 M292,334c-1.5,1.3-3.2,2.3-5,3l-1-2c1.8-0.4,3.5-1,5-2L292,334 M293,336c-1.6,0.9-3.2,1.6-5,2l1,2c1.5-0.8,2.8-1.8,4-3
	V336 M290,326h-1l-3-3l1-2l3,4 M292,324l1-1l-3-4l-2,1L292,324 M270,315l1,2h5v-2H270 M293,315l-1,2h-4l-1-2H293 M281,338l1-1l1,1
	l-1,2l-2-2H281z M283,330h1v-5h-1V330 M281,330h-2v-5h2V330 M262,314l2-2v-6h1v6l2,1h5v1h-7c0-0.6-0.4-1-1-1s-1,0.4-1,1H262
	 M275,314v-1h4l-5-6l1-1l5,6h1v-8h1v8h1l5-6l1,1l-5,6h5v1H275z M298,314c0-0.6,0.4-1,1-1l1,1h1c-0.1-0.8-0.4-1.5-1-2v-6h-2v6
	c-0.8,0.1-1.5,0.4-2,1h-5v1H298 M265,298l7,7l1-1l-6-7v-1h5v-2h-5c-0.7-0.9-1.9-1.3-3-1c-1,0.3-1.7,1-2,2l1,3v5h2V298z M299,298v5
	h-1v-5c-0.3,0.1-0.7,0.1-1,0l-6,7l-1-1l6-7c-0.1-0.3-0.1-0.7,0-1h-5v-1h5c0.4-1.3,1.7-2.1,3-2l2,2c1,2,0,3-1,3H299z M282,298v3h-1
	v-3c-1-0.3-1.7-1-2-2h-4v-1h4c0.3-1,1-1.7,2-2c2,0,3,1,3,2h4v1h-4C283.7,297,283,297.7,282,298z M263,302h-1v5l1,1V302 M265,302l2,1
	v4l-2,1V302 M298,302l-2,1v4l2,1V302 M300,302l1,1v4l-1,1V302 M272,303l2-1l3,4l-1,1L272,303 M271,304l-1,2l3,3l2-1L271,304
	 M291,303l-2-1l-3,4l1,1L291,303 M292,304l1,1l-3,4l-2-1L292,304 M270,314l1-2h5v2H270 M263,295l1-1l2,1l-2,2L263,295z M276,296v2
	h-5l-1-2H276 M276,295v-2h-5l-1,2H276 M293,314l-1-2h-4l-1,2H293 M297,295l2-1l1,1l-1,2L297,295z M280,295l2-1l1,1l-2,2L280,295z
	 M287,296l1,2h4l1-2H287 M287,295l1-2h4l1,2H287 M281,300h-2v5l2,1V300 M282,300h2v5l-2,1V300"/>
<path fill="none" stroke="#C8B100" stroke-width="0.3" d="M284,337c1.4-0.2,2.7-0.5,4-1l1,2c-1.6,0.6-3.3,0.9-5,1c-0.3,1-1,1.7-2,2
	c-1.3,0.1-2.6-0.7-3-2c-1.7-0.1-3.4-0.4-5-1l1-2l4,1c0.5-0.6,1.2-0.9,2-1v-7h1v7C282.8,336.1,283.5,336.4,284,337z M279,316
	c-0.1-0.3-0.1-0.7,0-1h-4v-1h4v-1l-5-6l1-1l5,6c0.3-0.1,0.7-0.1,1,0v-8h1v8h1l5-6l1,1l-5,6v1h5v1h-5v1l5,5l-1,1l-5-5v9h-2v-9l-5,5
	l-2-1L279,316 M266,298l6,7l1-1l-6-7v-1h5v-1h-5c-0.4-1.3-1.7-2.1-3-2c-1,0.3-1.7,1-2,2c0,2,0,3,2,3v5h1v-5H266z M273,335l-1,1
	c-1.5-0.8-2.8-1.8-4-3h-3c-1-1.1-1-2.9,0-4c-0.6-1.6-0.9-3.3-1-5h1c0.1,1.4,0.5,2.7,1,4c0.6-0.2,1.4-0.2,2,0l4-5l2,1l-5,5
	c0.5,0.9,0.5,2.1,0,3C270.2,333.2,271.5,334.2,273,335z M264,321v-4c-1.3-0.4-2.1-1.7-2-3c0-1,0-2,2-2v-6h1v6l2,2h5v1h-5
	c-0.3,1-1,1.7-2,2v4h-2 M266,330c0-0.6,0.4-1,1-1s1,0.4,1,1v1c0,0.6-0.4,1-1,1s-1-0.4-1-1C265.8,330.7,265.8,330.3,266,330z
	 M264,325h-2v-5h1v2L264,325z M265,319l2,1c0,1.3,0,2.7,0,4l-1,1l-1-3V319z M271,334c1.5,1.3,3.2,2.3,5,3l1-2c-1.8-0.4-3.5-1-5-2
	L271,334 M270,336c1.6,0.9,3.2,1.6,5,2l-1,1c-1.4-0.5-2.7-1.2-4-2V336"/>
<path fill="none" stroke="#C8B100" stroke-width="0.3" d="M273,325l1,1l4-3l-1-2L273,325 M271,324l-1-1l3-4l2,1L271,324 M263,314
	l1-1l2,1l-2,1L263,314z M291,335v1c1.5-0.8,2.8-1.8,4-3h3c1-1.1,1-2.9,0-4l2-5h-2c-0.1,1.4-0.5,2.7-1,4c-0.6-0.2-1.4-0.2-2,0l-4-5
	l-2,1l5,5c-0.5,0.9-0.5,2.1,0,3C293.1,333.1,292.1,334.1,291,335z M300,321v-4c1.3-0.4,2.1-1.7,2-3c-0.3-1-1-1.7-2-2v-6h-2v6l-2,1
	h-5v2h5c0.3,1,1,1.7,2,2v4H300z M297,330c0-0.6-0.4-1-1-1s-1,0.4-1,1c-0.2,0.3-0.2,0.7,0,1h2C297.2,330.7,297.2,330.3,297,330z
	 M299,325h2v-5l-1-1v3L299,325z M298,319l-2,1v4l2,1V319 M300,298v5h-2v-5c-0.3,0.1-0.7,0.1-1,0l-6,7l-1-1l6-8h-5v-2h5
	c0.7-0.9,1.9-1.3,3-1l2,2C302,297,301,298,300,298z M282,298v3h-1v-3c-1-0.3-1.7-1-2-2h-4v-1h4c0.3-1,1-1.7,2-2c2,0,3,1,3,2h4v1h-4
	C283.7,297,283,297.7,282,298z M292,334c-1.5,1.3-3.2,2.3-5,3l-1-2c1.8-0.4,3.5-1,5-2L292,334 M293,336c-1.6,0.9-3.2,1.6-5,2l1,2
	c1.5-0.8,2.8-1.8,4-3V336 M264,302l-2,1v4l1,1v-6 M265,302l2,1v4l-2,1V302 M298,302l-2,1v4l2,1V302"/>
<path fill="none" stroke="#C8B100" stroke-width="0.3" d="M300,302l1,1v4l-1,1V302 M290,325l-1,1l-3-3l1-2L290,325 M292,324l1-1
	l-3-4l-2,1L292,324 M272,303l2-1l3,4l-1,1L272,303 M271,304l-1,2l3,3l2-1L271,304 M291,303l-2-1l-3,4l1,1L291,303 M292,304l1,1l-3,4
	l-2-1L292,304 M270,314l1-2h5v2H270 M270,315l1,2h5v-2H270 M263,295l1-1l2,1l-2,2L263,295z M276,296v2h-5l-1-2H276 M276,295v-2h-5
	l-1,2H276 M298,314l1-1l1,1l-1,1L298,314z M293,314l-1-2h-4l-1,2H293 M293,315l-1,2h-4l-1-2H293 M281,338l1-1l1,1l-1,2l-2-2H281z
	 M283,330h1v-5h-1V330 M281,330h-2v-5h2V330 M298,295l1-1l1,1l-1,1L298,295z M280,295l2-1l1,1l-1,1L280,295z M287,296l1,2h4l1-2H287
	 M287,294l1-1h4l1,1H287 M281,300h-2v5h2V300 M282,300l2,1v4l-2,1V300"/>
<path fill="#058E6E" d="M279,314c0.4-1.3,1.7-2.1,3-2l2,2c0.1,1.3-0.7,2.6-2,3C280.3,317,279,315.7,279,314"/>
<path fill="#DB4446" d="M282,245v-1h-2c-1.1-0.1-2.1-0.4-3-1l-1-2l-3,1l2,1c0.5,0.8,1.2,1.5,2,2H282"/>
<path fill="none" stroke="#000000" stroke-width="0.4" d="M282,245v-1h-2c-1.1-0.1-2.1-0.4-3-1l-1-2l-3,1l2,1c0.5,0.8,1.2,1.5,2,2
	H282z"/>
<path fill="#ED72AA" stroke="#000000" stroke-width="0.4" d="M290,243v5v-1h-1v1l1,1l1,1v2l-1-1l-1-1l1,2l-1,2l-1-2l-1-1l1,2v3l-1-1
	l-1-1v1l2,5c1,2,3,4,6,3s2-5,1-7l-1-5l1-3c-0.3-1.3-0.3-2.7,0-4l1-2v-3l1,2v1l1-2l3-1v-1l-1,3l-2,2h3l-2,2l-1,2l-2,1v5l2,6
	c0,1,0,4-2,5l-3,2c-1,0-2,1-2,3l2,2l1,1l1,1l-1,2l-1,3v2h-1l-1,1v-2l-1,1v1l-1-1l-1-1l1-1c0,0,1,0,0,0h-1v-2h1l2-1l-1-1l-1-1v-1v3
	l-1-1v-2v3l-1-1l-1-1l-1-2v-1l1-2h-2l-1,1v5c0,0.3,0,0.7,0,1h-1l-2-1h-2l-1,1v1l-1-1h-1v-1h-1l-1-1v-1h2l-1-1v-1h1l1-1v2h4v-2h-1v1
	v-2l-1-1v2v-3c0-1,0-2,2-2h5l-4-2l-2-3l-1-1h-1c-0.4,0.3-0.7,0.6-1,1l-1,1v-2l-1,2l-1,1v-2l-1,1l-2,1v1l-1,1l-1-1c-1,0,0,0,0,0h-1
	l1-1h-2v-1l1-1h1l-1-1l-1-1h1l1-1l1,1h2l1-1l2-1l-1-1l-1-1c-0.6-0.4-1.3-0.8-2-1h-2h1l1-1h-1l-2-1h-1h3l-1-1l-1-1h-2v-2h1l-1-1l-1-1
	l1-1h1l1,1v-1l1-1h2l-1,2c-0.1,0.3-0.1,0.7,0,1c0.1,0.7,0.5,1.4,1,2h2l2,2h5l1-1l-1-2h1l2-1l-1-2l-2-1v-1l2-1h2v-1h2l3,1L290,243"/>
<path d="M279,242v-1h1L279,242C280,242,279,242,279,242"/>
<path fill="none" stroke="#000000" stroke-width="0.3" d="M279,242v-1h1L279,242C280,242,279,242,279,242z"/>
<path d="M283,241v-1h1l2,1H283"/>
<path fill="none" stroke="#000000" stroke-width="0.1" d="M283,241v-1h1l2,1H283z"/>
<path fill="none" stroke="#000000" stroke-width="0.3" d="M289,247v-1c-0.3,0-0.7,0-1,0"/>
<path fill="#DB4446" d="M268,242h2v-1l-2-1V242"/>
<path fill="none" stroke="#000000" stroke-width="0.4" d="M268,242h2v-1l-2-1V242z"/>
<path fill="#DB4446" d="M266,243l-2-1l-1,1h1v1l1-1"/>
<path fill="none" stroke="#000000" stroke-width="0.4" d="M266,243l-2-1l-1,1h1v1l1-1H266z"/>
<path fill="#DB4446" d="M264,246l-1,1v1l1-1l1,1v-1L264,246"/>
<path fill="none" stroke="#000000" stroke-width="0.4" d="M264,246l-1,1v1l1-1l1,1v-1L264,246z"/>
<path d="M279,246l1-1v1H279"/>
<path fill="none" stroke="#000000" stroke-width="0.3" d="M279,246l1-1v1H279"/>
<path d="M280,246l1-1v1H280"/>
<path fill="none" stroke="#000000" stroke-width="0.3" d="M280,246l1-1v1H280"/>
<path d="M280,243h1H280"/>
<path fill="none" stroke="#000000" stroke-width="0.3" d="M280,243h1H280"/>
<path d="M281,243h1H281"/>
<path fill="none" stroke="#000000" stroke-width="0.3" d="M281,243h1H281"/>
<path fill="none" stroke="#000000" stroke-width="0.4" d="M275,249l-1,1v1h4l-1,1v3h1c0.7-0.2,1.4-0.5,2-1l1-1v3l1-1l1-1v-1v2l1,2
	l1-2v-2l1,1 M274,255l1-1l1-1l1-1 M278,258l2-1c0.4-0.3,0.7-0.6,1-1"/>
<path fill="#DB4446" d="M267,256h-1l-1,1h2V256"/>
<path fill="none" stroke="#000000" stroke-width="0.4" d="M267,256h-1l-1,1h2V256z"/>
<path fill="#DB4446" d="M266,259l-1,1l-1,1h2V259"/>
<path fill="none" stroke="#000000" stroke-width="0.4" d="M266,259l-1,1l-1,1h2V259z"/>
<path fill="#DB4446" d="M268,262v1l1,1v-1L268,262"/>
<path fill="none" stroke="#000000" stroke-width="0.4" d="M268,262v1l1,1v-1L268,262z M285,264l2,2l-1,2"/>
<path fill="#DB4446" d="M275,269h-3l2,1h1V269"/>
<path fill="none" stroke="#000000" stroke-width="0.4" d="M275,269h-3l2,1h1V269z"/>
<path fill="#DB4446" d="M273,272l-1,1l-1,1l1-1l1,1v-1C273,272.7,273,272.3,273,272"/>
<path fill="none" stroke="#000000" stroke-width="0.4" d="M273,272l-1,1l-1,1l1-1l1,1v-1C273,272.7,273,272.3,273,272z"/>
<path fill="#DB4446" d="M275,275v1l1,1v-1L275,275"/>
<path fill="none" stroke="#000000" stroke-width="0.4" d="M275,275v1l1,1v-1L275,275z"/>
<path fill="#DB4446" d="M288,277h-2v1h2V277"/>
<path fill="none" stroke="#000000" stroke-width="0.4" d="M288,277h-2v1h2V277z"/>
<path fill="#DB4446" d="M288,280v1c0,0.3,0,0.7,0,1l1-1h1l-1-1H288"/>
<path fill="none" stroke="#000000" stroke-width="0.4" d="M288,280v1c0,0.3,0,0.7,0,1l1-1h1l-1-1H288z"/>
<path fill="#DB4446" d="M291,281l1,1l1,1l-1-2h1l-1-1L291,281"/>
<path fill="none" stroke="#000000" stroke-width="0.4" d="M291,281l1,1l1,1l-1-2h1l-1-1L291,281z"/>
<path fill="#FFD691" stroke="#000000" stroke-width="0.5" d="M259,338c2,0,3,2,3,4s-2,4-6,4c-2,0-5-2-5-4s1-4,3-4v-1l-1-1h1l1,1l1-1
	h1v1l1-1h1v1"/>
<path fill="#058E6E" stroke="#000000" stroke-width="0.5" d="M256,349l-6-4h-6l2,2c1.2,0.9,2.5,1.6,4,2l6-1 M257,349c0,0,3-3,5-3h7
	l-1,1c-1,0-2,2-5,2H257"/>
<path fill="#AD1519" stroke="#000000" stroke-width="0.5" d="M256,345c-1.9-1.9-1.9-5.1,0-7c1.3,0.9,2,2.4,2,4
	C257.7,343.2,257,344.3,256,345"/>
<path fill="#058E6E" stroke="#000000" stroke-width="0.5" d="M255,351l1-3v-2h1v5H255"/>
<path fill="#FFFFFF" d="M307,203l1-1l1,1l-1,2c-0.6,0-1-0.4-1-1"/>
<path fill="none" stroke="#000000" stroke-width="0.4" d="M307,203l1-1l1,1l-1,2c-0.6,0-1-0.4-1-1V203z"/>
<path fill="#FFFFFF" d="M308,201l2-1c0.6,0,1,0.4,1,1l-1,1c-0.3,0.6-0.9,0.8-1.5,0.5S307.7,201.6,308,201"/>
<path fill="none" stroke="#000000" stroke-width="0.4" d="M308,201l2-1c0.6,0,1,0.4,1,1l-1,1c-0.3,0.6-0.9,0.8-1.5,0.5
	S307.7,201.6,308,201z"/>
<path fill="#FFFFFF" d="M310,198l1-1c0.6,0,1,0.4,1,1l-1,1c-0.3,0.6-0.9,0.8-1.5,0.5s-0.8-0.9-0.5-1.5"/>
<path fill="none" stroke="#000000" stroke-width="0.4" d="M310,198l1-1c0.6,0,1,0.4,1,1l-1,1c-0.3,0.6-0.9,0.8-1.5,0.5
	s-0.8-0.9-0.5-1.5H310z"/>
<path fill="#FFFFFF" d="M310,194l1-1c0.6,0,1,0.4,1,1l-1,1L310,194"/>
<path fill="none" stroke="#000000" stroke-width="0.4" d="M310,194l1-1c0.6,0,1,0.4,1,1l-1,1L310,194z"/>
<path fill="#FFFFFF" d="M309,191l1-1c0.6,0,1,0.4,1,1l-1,1C309.4,192,309,191.6,309,191"/>
<path fill="none" stroke="#000000" stroke-width="0.4" d="M309,191l1-1c0.6,0,1,0.4,1,1l-1,1C309.4,192,309,191.6,309,191z"/>
<path fill="#FFFFFF" d="M307,188l1-1c0.6,0,1,0.4,1,1l-1,1C307.4,189,307,188.6,307,188"/>
<path fill="none" stroke="#000000" stroke-width="0.4" d="M307,188l1-1c0.6,0,1,0.4,1,1l-1,1C307.4,189,307,188.6,307,188z"/>
<path fill="#FFFFFF" d="M305,185l1-1c0.6,0,1,0.4,1,1l-1,1C305.4,186,305,185.6,305,185"/>
<path fill="none" stroke="#000000" stroke-width="0.4" d="M305,185l1-1c0.6,0,1,0.4,1,1l-1,1C305.4,186,305,185.6,305,185z"/>
<path fill="#FFFFFF" d="M302,183l1-1l1,1l-1,1C302.4,184,302,183.6,302,183"/>
<path fill="none" stroke="#000000" stroke-width="0.4" d="M302,183l1-1l1,1l-1,1C302.4,184,302,183.6,302,183z"/>
<path fill="#FFFFFF" d="M299,182l1-1l1,1l-1,1C299.4,183,299,182.6,299,182"/>
<path fill="none" stroke="#000000" stroke-width="0.4" d="M299,182l1-1l1,1l-1,1C299.4,183,299,182.6,299,182z"/>
<path fill="#FFFFFF" d="M296,180l1-1c0.6,0,1,0.4,1,1l-1,1c-0.3,0.6-0.9,0.8-1.5,0.5s-0.8-0.9-0.5-1.5"/>
<path fill="none" stroke="#000000" stroke-width="0.4" d="M296,180l1-1c0.6,0,1,0.4,1,1l-1,1c-0.3,0.6-0.9,0.8-1.5,0.5
	s-0.8-0.9-0.5-1.5H296z"/>
<path fill="#FFFFFF" d="M292,180l1-1l1,1l-1,1C292.4,181,292,180.6,292,180"/>
<path fill="none" stroke="#000000" stroke-width="0.4" d="M292,180l1-1l1,1l-1,1C292.4,181,292,180.6,292,180z"/>
<path fill="#FFFFFF" d="M288,180l1-1c0.3-0.6,0.9-0.8,1.5-0.5s0.8,0.9,0.5,1.5l-2,1C288.4,181,288,180.6,288,180"/>
<path fill="none" stroke="#000000" stroke-width="0.4" d="M288,180l1-1c0.3-0.6,0.9-0.8,1.5-0.5s0.8,0.9,0.5,1.5l-2,1
	C288.4,181,288,180.6,288,180z"/>
<path fill="#FFFFFF" d="M285,180l1-1l1,1l-1,1C285.4,181,285,180.6,285,180"/>
<path fill="none" stroke="#000000" stroke-width="0.4" d="M285,180l1-1l1,1l-1,1C285.4,181,285,180.6,285,180z"/>
<path fill="#FFFFFF" d="M281,180l1-1l2,1l-1,1c-0.3,0.6-0.9,0.8-1.5,0.5S280.7,180.6,281,180"/>
<path fill="none" stroke="#000000" stroke-width="0.4" d="M281,180l1-1l2,1l-1,1c-0.3,0.6-0.9,0.8-1.5,0.5S280.7,180.6,281,180z"/>
<path fill="#FFFFFF" stroke="#000000" stroke-width="0.4" d="M283,183l1-1l1,1l-1,1C283.4,184,283,183.6,283,183 M284,186l1-1l1,1
	l-1,1C284.4,187,284,186.6,284,186 M284,189l1-1c0.6,0,1,0.4,1,1l-1,1C284.4,190,284,189.6,284,189 M283,192l1-1c0.6,0,1,0.4,1,1
	l-1,1C283.4,193,283,192.6,283,192 M281,195l1-1l1,1l-1,1C281.4,196,281,195.6,281,195"/>
<path fill="#FFFFFF" d="M279,178l1-1l1,1l-1,1C279.4,179,279,178.6,279,178"/>
<path fill="none" stroke="#000000" stroke-width="0.4" d="M279,178l1-1l1,1l-1,1C279.4,179,279,178.6,279,178z"/>
<path fill="#FFFFFF" d="M276,176l1-1l1,1l-1,1C276.4,177,276,176.6,276,176"/>
<path fill="none" stroke="#000000" stroke-width="0.4" d="M276,176l1-1l1,1l-1,1C276.4,177,276,176.6,276,176z"/>
<path fill="#FFFFFF" d="M272,175l2-1l1,1l-1,1c-0.3,0.6-0.9,0.8-1.5,0.5S271.7,175.6,272,175"/>
<path fill="none" stroke="#000000" stroke-width="0.4" d="M272,175l2-1l1,1l-1,1c-0.3,0.6-0.9,0.8-1.5,0.5S271.7,175.6,272,175z"/>
<path fill="#FFFFFF" d="M269,174l1-1l1,1l-1,1C269.4,175,269,174.6,269,174"/>
<path fill="none" stroke="#000000" stroke-width="0.4" d="M269,174l1-1l1,1l-1,1C269.4,175,269,174.6,269,174z"/>
<path fill="#FFFFFF" d="M265,174l1-1l2,1l-1,1c-0.3,0.6-0.9,0.8-1.5,0.5S264.7,174.6,265,174"/>
<path fill="none" stroke="#000000" stroke-width="0.4" d="M265,174l1-1l2,1l-1,1c-0.3,0.6-0.9,0.8-1.5,0.5S264.7,174.6,265,174z"/>
<path fill="#FFFFFF" d="M262,175l1-1c0.6,0,1,0.4,1,1l-1,1C262.4,176,262,175.6,262,175"/>
<path fill="none" stroke="#000000" stroke-width="0.4" d="M262,175l1-1c0.6,0,1,0.4,1,1l-1,1C262.4,176,262,175.6,262,175z"/>
<path fill="#FFFFFF" d="M259,176l1-1l1,1l-1,1C259.4,177,259,176.6,259,176"/>
<path fill="none" stroke="#000000" stroke-width="0.4" d="M259,176l1-1l1,1l-1,1C259.4,177,259,176.6,259,176z"/>
<path fill="#FFFFFF" d="M202,203l1-1c0.3-0.6,0.9-0.8,1.5-0.5s0.8,0.9,0.5,1.5l-1,2c-0.3,0.6-0.9,0.8-1.5,0.5s-0.8-0.9-0.5-1.5"/>
<path fill="none" stroke="#000000" stroke-width="0.4" d="M202,203l1-1c0.3-0.6,0.9-0.8,1.5-0.5s0.8,0.9,0.5,1.5l-1,2
	c-0.3,0.6-0.9,0.8-1.5,0.5s-0.8-0.9-0.5-1.5V203z"/>
<path fill="#FFFFFF" d="M201,201l1-1l1,1l-1,1C201.4,202,201,201.6,201,201"/>
<path fill="none" stroke="#000000" stroke-width="0.4" d="M201,201l1-1l1,1l-1,1C201.4,202,201,201.6,201,201z"/>
<path fill="#FFFFFF" d="M200,198l1-1c0.6,0,1,0.4,1,1l-1,1C200.4,199,200,198.6,200,198"/>
<path fill="none" stroke="#000000" stroke-width="0.4" d="M200,198l1-1c0.6,0,1,0.4,1,1l-1,1C200.4,199,200,198.6,200,198z"/>
<path fill="#FFFFFF" d="M200,194l1-1l1,1l-1,1L200,194"/>
<path fill="none" stroke="#000000" stroke-width="0.4" d="M200,194l1-1l1,1l-1,1L200,194z"/>
<path fill="#FFFFFF" d="M200,191l2-1l1,1l-1,1c-0.3,0.6-0.9,0.8-1.5,0.5S199.7,191.6,200,191"/>
<path fill="none" stroke="#000000" stroke-width="0.4" d="M200,191l2-1l1,1l-1,1c-0.3,0.6-0.9,0.8-1.5,0.5S199.7,191.6,200,191z"/>
<path fill="#FFFFFF" d="M202,188l1-1c0.6,0,1,0.4,1,1l-1,1C202.4,189,202,188.6,202,188"/>
<path fill="none" stroke="#000000" stroke-width="0.4" d="M202,188l1-1c0.6,0,1,0.4,1,1l-1,1C202.4,189,202,188.6,202,188z"/>
<path fill="#FFFFFF" d="M205,185l1-1l1,1l-1,1l-2-1"/>
<path fill="none" stroke="#000000" stroke-width="0.4" d="M205,185l1-1l1,1l-1,1l-2-1H205z"/>
<path fill="#FFFFFF" d="M207,183l1-1l1,1l-1,1C207.4,184,207,183.6,207,183"/>
<path fill="none" stroke="#000000" stroke-width="0.4" d="M207,183l1-1l1,1l-1,1C207.4,184,207,183.6,207,183z"/>
<path fill="#FFFFFF" d="M210,182l2-1c0.6,0,1,0.4,1,1l-1,1c-0.3,0.6-0.9,0.8-1.5,0.5S209.7,182.6,210,182"/>
<path fill="none" stroke="#000000" stroke-width="0.4" d="M210,182l2-1c0.6,0,1,0.4,1,1l-1,1c-0.3,0.6-0.9,0.8-1.5,0.5
	S209.7,182.6,210,182z"/>
<path fill="#FFFFFF" d="M214,180l1-1l1,1l-1,1C214.4,181,214,180.6,214,180"/>
<path fill="none" stroke="#000000" stroke-width="0.4" d="M214,180l1-1l1,1l-1,1C214.4,181,214,180.6,214,180z"/>
<path fill="#FFFFFF" d="M217,180l2-1c0.6,0,1,0.4,1,1l-2,1C217.4,181,217,180.6,217,180"/>
<path fill="none" stroke="#000000" stroke-width="0.4" d="M217,180l2-1c0.6,0,1,0.4,1,1l-2,1C217.4,181,217,180.6,217,180z"/>
<path fill="#FFFFFF" d="M221,180l1-1l1,1l-1,1C221.4,181,221,180.6,221,180"/>
<path fill="none" stroke="#000000" stroke-width="0.4" d="M221,180l1-1l1,1l-1,1C221.4,181,221,180.6,221,180z"/>
<path fill="#FFFFFF" d="M224,180l2-1c0.6,0,1,0.4,1,1l-1,1c-0.3,0.6-0.9,0.8-1.5,0.5S223.7,180.6,224,180"/>
<path fill="none" stroke="#000000" stroke-width="0.4" d="M224,180l2-1c0.6,0,1,0.4,1,1l-1,1c-0.3,0.6-0.9,0.8-1.5,0.5
	S223.7,180.6,224,180z"/>
<path fill="#FFFFFF" d="M228,180l1-1l1,1l-1,1C228.4,181,228,180.6,228,180"/>
<path fill="none" stroke="#000000" stroke-width="0.4" d="M228,180l1-1l1,1l-1,1C228.4,181,228,180.6,228,180z"/>
<path fill="#FFFFFF" stroke="#000000" stroke-width="0.4" d="M226,183l1-1l1,1l-1,1C226.4,184,226,183.6,226,183 M225,186l1-1l2,1
	l-2,1L225,186 M225,189l1-1l1,1l-1,1C225.4,190,225,189.6,225,189 M226,192l1-1c0.3-0.6,0.9-0.8,1.5-0.5s0.8,0.9,0.5,1.5l-2,1
	C226.4,193,226,192.6,226,192 M228,195l1-1l1,1l-1,1C228.4,196,228,195.6,228,195"/>
<path fill="#FFFFFF" d="M230,178l2-1l1,1l-2,1c-0.2-0.3-0.2-0.7,0-1"/>
<path fill="none" stroke="#000000" stroke-width="0.4" d="M230,178l2-1l1,1l-2,1c-0.2-0.3-0.2-0.7,0-1H230z"/>
<path fill="#FFFFFF" d="M234,176l1-1l1,1l-1,1c-0.3,0.6-0.9,0.8-1.5,0.5s-0.8-0.9-0.5-1.5"/>
<path fill="none" stroke="#000000" stroke-width="0.4" d="M234,176l1-1l1,1l-1,1c-0.3,0.6-0.9,0.8-1.5,0.5s-0.8-0.9-0.5-1.5H234z"/>
<path fill="#FFFFFF" d="M237,175l1-1l1,1l-1,1C237.4,176,237,175.6,237,175"/>
<path fill="none" stroke="#000000" stroke-width="0.4" d="M237,175l1-1l1,1l-1,1C237.4,176,237,175.6,237,175z"/>
<path fill="#FFFFFF" d="M240,174l2-1c0.6,0,1,0.4,1,1l-1,1c-0.3,0.6-0.9,0.8-1.5,0.5S239.7,174.6,240,174"/>
<path fill="none" stroke="#000000" stroke-width="0.4" d="M240,174l2-1c0.6,0,1,0.4,1,1l-1,1c-0.3,0.6-0.9,0.8-1.5,0.5
	S239.7,174.6,240,174z"/>
<path fill="#FFFFFF" d="M244,174l1-1c0.6,0,1,0.4,1,1l-1,1C244.4,175,244,174.6,244,174"/>
<path fill="none" stroke="#000000" stroke-width="0.4" d="M244,174l1-1c0.6,0,1,0.4,1,1l-1,1C244.4,175,244,174.6,244,174z"/>
<path fill="#FFFFFF" d="M247,175l2-1c0.6,0,1,0.4,1,1l-2,1c-0.2-0.3-0.2-0.7,0-1"/>
<path fill="none" stroke="#000000" stroke-width="0.4" d="M247,175l2-1c0.6,0,1,0.4,1,1l-2,1c-0.2-0.3-0.2-0.7,0-1H247z"/>
<path fill="#FFFFFF" d="M251,176l1-1l1,1l-1,1C251.4,177,251,176.6,251,176"/>
<path fill="none" stroke="#000000" stroke-width="0.4" d="M251,176l1-1l1,1l-1,1C251.4,177,251,176.6,251,176z"/>
<path fill="#C8B100" stroke="#000000" stroke-width="0.5" d="M222,244h-1v-1h-1v4h1v3h-3v7h2v15h-4v8h29v-8h-4v-15h2v-7h-3v-3h1v-4
	h-1v1h-1v-1h-2v1h-1v-1h-2v4h2v3h-4v-9h2v-4h-2v1h-1v-1h-1v1h-1v-1h-2v4h2v9h-4v-3h2v-4h-2v1h-1v-1h-2V244z M216,280h29 M216,278h29
	 M216,276h29 M216,274h29 M216,272h29 M220,271h21 M220,269h21 M220,267h21 M220,265h21 M220,263h21 M220,261h21 M220,259h21
	 M218,257h25 M218,255h25 M218,253h25 M218,252h25 M221,250h18 M228,248h4 M229,246h3 M229,244h3 M229,242h3 M227,240h7 M221,248h4
	 M220,245h7 M220,280v-2 M220,276v-2 M218,276v2 M221,278v-2 M223,280v-2 M223,276v-2 M223,272v-1 M223,269v-2 M221,274v-2 M218,274
	v-2 M225,272v2 M227,272v-1 M221,269v2 M225,269v2 M228,269v2 M227,269v-2 M228,265v2 M228,261v2 M227,259v2 M228,257v2 M225,257v2
	 M221,257v2 M220,255v2 M223,255v2 M227,255v2 M229,253v2 M225,253v2 M221,253v2 M220,252v1 M227,251v2 M223,248v2 M239,248h-3
	 M241,245h-7 M241,280v-2 M241,276v-2 M243,276v2 M239,278v-2 M238,280v-2 M238,276v-2 M238,272v-1 M238,269v-2 M240,274v-2
	 M243,274v-2 M236,272v2 M234,272v-1 M239,269v2 M236,269v2 M232,269v2 M234,269v-2 M232,265v2 M232,261v2 M234,259v2 M232,257v2
	 M236,257v2 M240,257v2 M241,255v2 M238,255v2 M234,255v2 M232,253v2 M236,253v2 M239,253v2 M241,252v1 M234,251v2 M238,248v2
	 M230,269v-2 M230,261v-2 M230,265v-2 M230,257v-2 M230,253v-1 M230,248v-2 M230,244v-2 M221,247h4 M229,241h3 M236,247h3"/>
<path fill="#C8B100" stroke="#000000" stroke-width="0.5" d="M235,280v-5c0-1,0-4-5-4c-4,0-4,3-4,4v5H235z"/>
<path fill="#C8B100" stroke="#000000" stroke-width="0.5" d="M227,275h-2l1-3l2,2L227,275z M234,275h2l-1-3l-2,2L234,275z M231,273
	l1-2c-0.6-0.5-1.3-0.8-2-1l-2,1l2,2H231z M227,267v-5c0-1-1-3-3-3s-2,2-2,3v5H227z M234,267v-5c0-1,1-3,3-3s2,2,2,3v5H234z M232,254
	l1-4h-5v4H232z M236,254l-1-4h5l-1,4H236z M225,254v-4h-4v4H225z"/>
<path fill="#0039F0" d="M234,280v-4c0-1-1-3-4-3c-1.7,0-3,1.3-3,3v4H234z M226,267v-5c0-1,0-2-2-2s-2,1-2,2v5H226z M235,267v-5
	c0-1,0-2,2-2s2,1,2,2v5H235z"/>
<path fill="#AD1519" d="M240,288c0-11,7-19,16-19s17,8,17,19c0,10-8,18-17,18S240,298,240,288"/>
<path fill="none" stroke="#000000" stroke-width="0.6" d="M240,288c0-11,7-19,16-19s17,8,17,19c0,10-8,18-17,18S240,298,240,288z"/>
<path fill="#005BBF" d="M244,288c0-8,6-14,12-14c7,0,12,6,12,14s-5,13-12,13C250,301,244,295,244,288"/>
<path fill="none" stroke="#000000" stroke-width="0.6" d="M244,288c0-8,6-14,12-14c7,0,12,6,12,14s-5,13-12,13
	C250,301,244,295,244,288z"/>
<path fill="#C8B100" d="M251,278l-2,3l1,3c-0.4-0.7-1.2-1.1-2-1c-0.4,0.2-0.8,0.6-1,1v1l1,1h1l1,1h-2v1h2l-1,2l1-1l1,1v-1l2,1l-1-2
	h1v-1h-1c-0.2-0.3-0.2-0.7,0-1l1-1l1,1v-2l-1-1l-1,1v-3L251,278"/>
<path fill="none" stroke="#000000" stroke-width="0.3" stroke-linejoin="round" d="M251,278l-2,3l1,3c-0.4-0.7-1.2-1.1-2-1
	c-0.4,0.2-0.8,0.6-1,1v1l1,1h1l1,1h-2v1h2l-1,2l1-1l1,1v-1l2,1l-1-2h1v-1h-1c-0.2-0.3-0.2-0.7,0-1l1-1l1,1v-2l-1-1l-1,1v-3L251,278z
	"/>
<path fill="#C8B100" d="M248,288h5v-1h-5V288z"/>
<path fill="none" stroke="#000000" stroke-width="0.3" d="M248,288h5v-1h-5V288z"/>
<path fill="#C8B100" d="M262,278l-2,3l1,3l-2-1l-1,1v1l1,1h1c0.6,0,1,0.4,1,1h-2v1h1v2l1-1l1,1v-1l1,1v-2h1v-1h-1
	c-0.2-0.3-0.2-0.7,0-1l1-1l1,1v-2l-1-1l-2,1l1-3L262,278"/>
<path fill="none" stroke="#000000" stroke-width="0.3" stroke-linejoin="round" d="M262,278l-2,3l1,3l-2-1l-1,1v1l1,1h1
	c0.6,0,1,0.4,1,1h-2v1h1v2l1-1l1,1v-1l1,1v-2h1v-1h-1c-0.2-0.3-0.2-0.7,0-1l1-1l1,1v-2l-1-1l-2,1l1-3L262,278z"/>
<path fill="#C8B100" d="M259,288h5v-1h-5V288z"/>
<path fill="none" stroke="#000000" stroke-width="0.3" d="M259,288h5v-1h-5V288z"/>
<path fill="#C8B100" d="M256,288l-1,3v2c-0.2-0.4-0.6-0.8-1-1c-1.1,0-2,0.9-2,2l1,1h1l1,1h-1v1h1l-1,2l1-1l1,1l1-1l1,1l-1-2h1v-1h-1
	l1-1h1l1-1l-2-2c-0.4,0.2-0.8,0.6-1,1l1-2C258,289,256,288,256,288"/>
<path fill="none" stroke="#000000" stroke-width="0.3" stroke-linejoin="round" d="M256,288l-1,3v2c-0.2-0.4-0.6-0.8-1-1
	c-1.1,0-2,0.9-2,2l1,1h1l1,1h-1v1h1l-1,2l1-1l1,1l1-1l1,1l-1-2h1v-1h-1l1-1h1l1-1l-2-2c-0.4,0.2-0.8,0.6-1,1l1-2
	C258,289,256,288,256,288z"/>
<path fill="#C8B100" d="M254,297h4v-1h-4V297z"/>
<path fill="none" stroke="#000000" stroke-width="0.3" d="M254,297h4v-1h-4V297z"/>
<path fill="#C8B100" d="M289,238c0.1,0.3,0.1,0.7,0,1h-1c-0.2-0.3-0.2-0.7,0-1c-0.3,0.2-0.7,0.2-1,0v-1h-1l-1-1v2
	c-0.3,0.4-0.6,0.7-1,1l3,1c1.2,0.8,2.2,1.8,3,3l1-1h2h-2v-2h-1c-0.3,0.2-0.7,0.2-1,0c-0.2-0.3-0.2-0.7,0-1V238"/>
<path fill="none" stroke="#000000" stroke-width="0.3" d="M289,238c0.1,0.3,0.1,0.7,0,1h-1c-0.2-0.3-0.2-0.7,0-1
	c-0.3,0.2-0.7,0.2-1,0v-1h-1l-1-1v2c-0.3,0.4-0.6,0.7-1,1l3,1c1.2,0.8,2.2,1.8,3,3l1-1h2h-2v-2h-1c-0.3,0.2-0.7,0.2-1,0
	c-0.2-0.3-0.2-0.7,0-1V238z"/>
<path fill="none" stroke="#000000" stroke-width="0.1" d="M287,239"/>
<path d="M288,240v-1V240h1H288"/>
<path fill="none" stroke="#000000" stroke-width="0.1" d="M288,240v-1V240h1H288"/>
<path d="M286,239v-1l1,1H286"/>
<path fill="none" stroke="#000000" stroke-width="0.1" d="M286,239v-1l1,1H286z"/>
<path d="M289,241v-1V241"/>
<path fill="none" stroke="#000000" stroke-width="0.1" d="M289,241v-1V241z"/>
<path d="M290,241h-1H290"/>
<path fill="none" stroke="#000000" stroke-width="0.1" d="M290,241h-1H290"/>
<path d="M291,242h-1H291"/>
<path fill="none" stroke="#000000" stroke-width="0.1" d="M291,242h-1H291z"/>
<path fill="#C8B100" d="M288,236h-1v1L288,236"/>
<path fill="none" stroke="#000000" stroke-width="0.3" d="M288,236h-1v1L288,236"/>
<path fill="#C8B100" d="M286,236v1h1v-1H286"/>
<path fill="none" stroke="#000000" stroke-width="0.3" d="M286,236v1h1v-1H286"/>
<path fill="#C8B100" d="M288,238l-1-1h1V238"/>
<path fill="none" stroke="#000000" stroke-width="0.3" d="M288,238l-1-1h1V238z"/>
<path fill="#C8B100" d="M285,236v-1c-0.3-0.1-0.7-0.1-1,0h1V236"/>
<path fill="none" stroke="#000000" stroke-width="0.3" d="M285,236v-1c-0.3-0.1-0.7-0.1-1,0h1V236z"/>
<path fill="#C8B100" d="M286,236l-1,1v-1H286"/>
<path fill="none" stroke="#000000" stroke-width="0.3" d="M286,236l-1,1v-1H286z"/>
<path fill="#C8B100" d="M290,237l-1,1h1V237"/>
<path fill="none" stroke="#000000" stroke-width="0.3" d="M290,237l-1,1h1V237"/>
<path fill="#C8B100" d="M289,238h-1H289v-1V238"/>
<path fill="none" stroke="#000000" stroke-width="0.3" d="M289,238h-1H289v-1V238"/>
<path fill="#C8B100" d="M290,239l-1-1h1V239"/>
<path fill="none" stroke="#000000" stroke-width="0.3" d="M290,239l-1-1h1V239"/>
<path fill="#C8B100" d="M289,238h1l-1,1V238"/>
<path fill="none" stroke="#000000" stroke-width="0.3" d="M289,238h1l-1,1V238z"/>
<path fill="#C8B100" d="M292,239v1h-1L292,239"/>
<path fill="none" stroke="#000000" stroke-width="0.3" d="M292,239v1h-1L292,239"/>
<path fill="#C8B100" d="M292,241l-1-1h1V241"/>
<path fill="none" stroke="#000000" stroke-width="0.3" d="M292,241l-1-1h1V241"/>
<path fill="#C8B100" d="M291,239l-1,1h1V239"/>
<path fill="none" stroke="#000000" stroke-width="0.3" d="M291,239l-1,1h1V239"/>
<path fill="#C8B100" d="M292,240h-1"/>
<path fill="none" stroke="#000000" stroke-width="0.3" d="M292,240h-1H292z"/>
<path fill="#C8B100" d="M293,242h1H293"/>
<path fill="none" stroke="#000000" stroke-width="0.3" d="M293,242h1H293z"/>
<path fill="#C8B100" d="M292,241v1h1v-1H292"/>
<path fill="none" stroke="#000000" stroke-width="0.3" d="M292,241v1h1v-1H292z M334,219h-3h1v-2h-1h1v-1h1v3H334"/>
<path fill="none" d="M179,232v-2 M179,232v-2 M179,232v-2 M178,232v-2"/>
<path fill="none" stroke="#000000" stroke-width="0.1" d="M178,232v-2 M178,231v-1 M178,231v-1 M177,231v-1 M177,231v-1 M176,231v-1
	 M176,231v-1 M177,231v-1 M176,231v-1 M176,231v-1 M176,231v-1"/>
<path fill="none" d="M181,232v-2 M180,232v-2 M180,232v-2 M332,232v-2 M332,232v-2 M332,232v-2 M331,232v-2"/>
<path fill="none" stroke="#000000" stroke-width="0.1" d="M331,232v-2 M330,231v-1 M331,231v-1 M330,231v-1 M330,231v-1 M329,231v-1
	 M329,231v-1 M330,231v-1 M329,231v-1 M329,231v-1 M328,231v-1"/>
<path fill="none" d="M334,232v-2 M333,232v-2 M333,232v-2"/>
</svg>
