<svg id="flag-en-uk" xmlns="http://www.w3.org/2000/svg" viewBox="0 0 512 512">
<rect x="-1.7" y="0" fill="#FFFFFF" width="515" height="511.8"/>
<polygon fill="#D80027" points="304,207.9 304,0 208,0 208,207.9 -1.7,207.9 -1.7,303.9 208,303.9 208,511.8 304,511.8 304,303.9
	513.3,303.9 513.3,207.9 "/>
<g>
	<polygon fill="#0052B4" points="462.6,344.9 513.3,373.1 513.3,344.9 	"/>
	<polygon fill="#0052B4" points="424.4,344.9 339.4,344.9 513.3,441.5 513.3,394.3 	"/>
	<polygon fill="#0052B4" points="339.4,389.3 339.4,511.8 513.3,511.8 513.3,485.9 	"/>
</g>
<polygon fill="#FFFFFF" points="424.4,344.9 339.4,344.9 513.3,441.5 513.3,394.3 "/>
<polygon fill="#D80027" points="424.4,344.9 339.4,344.9 513.3,441.5 513.3,394.3 "/>
<g>
	<polygon fill="#0052B4" points="-1.7,344.9 -1.7,350 7.6,344.9 	"/>
	<polygon fill="#0052B4" points="172.6,366.1 -1.7,462.9 -1.7,511.8 172.6,511.8 	"/>
</g>
<polygon fill="#D80027" points="87.6,344.9 -1.7,394.5 -1.7,441.7 172.6,344.9 "/>
<g>
	<polygon fill="#0052B4" points="-1.7,138.5 -1.7,166.9 49.4,166.9 	"/>
	<polygon fill="#0052B4" points="172.6,166.9 -1.7,70.1 -1.7,117.3 87.6,166.9 	"/>
	<polygon fill="#0052B4" points="172.6,0 -1.7,0 -1.7,25.6 172.6,122.4 	"/>
</g>
<polygon fill="#FFFFFF" points="172.6,166.9 -1.7,70.1 -1.7,117.3 87.6,166.9 "/>
<polygon fill="#D80027" points="172.6,166.9 -1.7,70.1 -1.7,117.3 87.6,166.9 "/>
<g>
	<polygon fill="#0052B4" points="504.4,166.9 513.3,166.9 513.3,161.9 	"/>
	<polygon fill="#0052B4" points="339.4,0 339.4,145.7 513.3,49.1 513.3,0 	"/>
</g>
<polygon fill="#D80027" points="339.4,166.9 424.4,166.9 513.3,117.5 513.3,70.3 "/>
</svg>
