<svg xmlns="http://www.w3.org/2000/svg" viewBox="0 0 256 256"><path fill="none" d="M0 0h256v256H0z"/><path d="m136.65 153.34-39-39a8 8 0 0 0-11.32 0L32 168.69V56a8 8 0 0 1 8-8h176a8 8 0 0 1 8 8v32l-48 16-16 40Z" opacity=".2"/><path fill="none" stroke="currentColor" stroke-linecap="round" stroke-linejoin="round" stroke-width="8" d="M104 208H40a8 8 0 0 1-8-8V56a8 8 0 0 1 8-8h176a8 8 0 0 1 8 8v32l-48 16-16 40-40 16Zm33.73 0 7.94-23.8 39-15.58 15.58-39 23.8-7.94V200a8 8 0 0 1-8 8Z"/><path fill="none" stroke="currentColor" stroke-linecap="round" stroke-linejoin="round" stroke-width="8" d="m32 168.69 54.34-54.35a8 8 0 0 1 11.32 0l39 39"/></svg>